<svg width="1441" height="317" viewBox="0 0 1441 317" fill="none" xmlns="http://www.w3.org/2000/svg">
<g opacity="0.08">
<mask id="mask0" mask-type="alpha" maskUnits="userSpaceOnUse" x="1216" y="0" width="225" height="300">
<rect x="1216" width="224.365" height="300" fill="#C4C4C4"/>
</mask>
<g mask="url(#mask0)">
<path d="M1353.69 2.58829C1358.64 -0.269834 1364.74 -0.26984 1369.69 2.58828L1475.9 63.9091C1480.85 66.7672 1483.9 72.0492 1483.9 77.7655V200.407C1483.9 206.123 1480.85 211.405 1475.9 214.263L1369.69 275.584C1364.74 278.442 1358.64 278.442 1353.69 275.584L1247.48 214.263C1242.53 211.405 1239.48 206.123 1239.48 200.407V77.7655C1239.48 72.0492 1242.53 66.7672 1247.48 63.9091L1353.69 2.58829Z" fill="#D2BCBC"/>
<path d="M1361.1 10.1825L1478.31 75.1686C1482.91 77.7242 1485.77 82.5795 1485.77 87.8496V216.719C1485.77 221.989 1482.91 226.844 1478.31 229.4L1361.1 294.386C1356.73 296.811 1351.42 296.811 1347.04 294.386L1229.84 229.4C1225.23 226.844 1222.37 221.989 1222.37 216.719V87.8496C1222.37 82.5794 1225.23 77.7242 1229.84 75.1686L1347.04 10.1825C1351.42 7.75719 1356.73 7.75719 1361.1 10.1825Z" stroke="#D2BCBC" stroke-width="3"/>
</g>
<mask id="mask1" mask-type="alpha" maskUnits="userSpaceOnUse" x="0" y="119" width="147" height="198">
<rect width="147" height="196.554" transform="matrix(-1 0 0 1 147 119.598)" fill="#C4C4C4"/>
</mask>
<g mask="url(#mask1)">
<path d="M59.5509 122.887C54.6005 120.029 48.5013 120.029 43.5509 122.887L-20.5191 159.878C-25.4695 162.736 -28.5191 168.018 -28.5191 173.734V247.716C-28.5191 253.432 -25.4695 258.714 -20.5191 261.572L43.5509 298.563C48.5013 301.421 54.6005 301.421 59.5509 298.563L123.621 261.572C128.571 258.714 131.621 253.432 131.621 247.716V173.734C131.621 168.018 128.571 162.736 123.621 159.878L59.5509 122.887Z" fill="#D2BCBC"/>
<path d="M49.5077 128.205L-21.7628 167.724C-26.3719 170.28 -29.2314 175.135 -29.2314 180.405V258.339C-29.2314 263.609 -26.3719 268.464 -21.7628 271.02L49.5077 310.538C53.8817 312.964 59.1967 312.964 63.5706 310.538L134.841 271.02C139.45 268.464 142.31 263.609 142.31 258.339V180.405C142.31 175.135 139.45 170.28 134.841 167.724L63.5706 128.205C59.1967 125.78 53.8817 125.78 49.5077 128.205Z" stroke="#D2BCBC" stroke-width="3"/>
</g>
</g>
</svg>
