<svg width="1440" height="591" viewBox="0 0 1440 591" fill="none" xmlns="http://www.w3.org/2000/svg">
<g opacity="0.08">
<mask id="mask0" mask-type="alpha" maskUnits="userSpaceOnUse" x="997" y="0" width="443" height="591">
<rect x="997.625" width="442" height="591" fill="#C4C4C4"/>
</mask>
<g mask="url(#mask0)">
<path d="M1276.62 0.618805C1281.58 -2.23932 1287.67 -2.23932 1292.62 0.618802L1517.38 130.381C1522.33 133.239 1525.38 138.521 1525.38 144.238V403.762C1525.38 409.479 1522.33 414.761 1517.38 417.619L1292.62 547.381C1287.67 550.239 1281.58 550.239 1276.62 547.381L1051.87 417.619C1046.92 414.761 1043.87 409.479 1043.87 403.762V144.238C1043.87 138.521 1046.92 133.239 1051.87 130.381L1276.62 0.618805Z" fill="#D2BCBC"/>
<path d="M1262.59 14.614C1266.97 12.1887 1272.28 12.1887 1276.66 14.614L1523.06 151.242C1527.67 153.798 1530.53 158.653 1530.53 163.923V436.077C1530.53 441.347 1527.67 446.202 1523.06 448.758L1276.66 585.386C1272.28 587.811 1266.97 587.811 1262.59 585.386L1016.19 448.758C1011.58 446.202 1008.72 441.347 1008.72 436.077V163.923C1008.72 158.653 1011.58 153.798 1016.19 151.242L1262.59 14.614Z" stroke="#D2BCBC" stroke-width="3"/>
</g>
<mask id="mask1" mask-type="alpha" maskUnits="userSpaceOnUse" x="0" y="163" width="310" height="414">
<rect width="309.624" height="414" transform="matrix(-1 0 0 1 309.625 163)" fill="#C4C4C4"/>
</mask>
<g mask="url(#mask1)">
<path d="M116.579 164.817C111.629 161.959 105.53 161.959 100.579 164.817L-52.0716 252.95C-57.022 255.808 -60.0716 261.09 -60.0716 266.806V443.072C-60.0716 448.788 -57.022 454.07 -52.0716 456.928L100.579 545.061C105.53 547.92 111.629 547.92 116.579 545.061L269.23 456.928C274.18 454.07 277.23 448.788 277.23 443.072V266.806C277.23 261.09 274.18 255.808 269.23 252.95L116.579 164.817Z" fill="#D2BCBC"/>
<path d="M126.117 174.919C121.744 172.493 116.429 172.493 112.055 174.919L-55.7626 267.971C-60.3717 270.526 -63.2312 275.382 -63.2312 280.652V465.653C-63.2312 470.923 -60.3717 475.778 -55.7626 478.334L112.055 571.386C116.428 573.811 121.744 573.811 126.117 571.386L293.935 478.334C298.544 475.778 301.403 470.923 301.403 465.653V280.652C301.403 275.382 298.544 270.526 293.935 267.971L126.117 174.919Z" stroke="#D2BCBC" stroke-width="3"/>
</g>
</g>
</svg>
