<svg width="590" height="526" viewBox="0 0 590 526" fill="none" xmlns="http://www.w3.org/2000/svg">
<g opacity="0.7" filter="url(#filter0_f)">
<path d="M61.3846 102.105L43.0972 67.0537L5.7605 102.105L21.7619 158.491L40.8113 113.534L73.5762 156.205L61.3846 102.105Z" fill="url(#paint0_linear)"/>
</g>
<path fill-rule="evenodd" clip-rule="evenodd" d="M61.245 101.467C61.4385 101.887 61.4307 102.372 61.2239 102.786L54.3661 116.502C54.0199 117.194 53.2097 117.517 52.4823 117.252L35.7188 111.156C35.1409 110.946 34.7459 110.409 34.7173 109.795L33.1917 76.9945L31.6661 109.795C31.6375 110.409 31.2425 110.946 30.6646 111.156L13.9012 117.252C13.1737 117.517 12.3635 117.194 12.0173 116.502L5.15956 102.786C4.95272 102.372 4.94493 101.887 5.1384 101.467L31.8011 43.571C31.8999 43.3509 32.0499 43.1567 32.2383 43.0055C32.5063 42.7909 32.8424 42.6703 33.1917 42.6704C33.541 42.6703 33.8772 42.7909 34.1451 43.0055C34.3335 43.1567 34.4835 43.3509 34.5823 43.571L61.245 101.467ZM33.9549 60.5861L36.2404 109.724L53.0033 115.82L53.0031 115.82L36.2396 109.724L33.9545 60.5943L33.9549 60.5861ZM32.4289 60.5943L32.4288 60.5926L30.1437 109.724L13.3802 115.82L13.3804 115.82L30.1438 109.724L32.4289 60.5943Z" fill="#DDAE52"/>
<path d="M430.18 223.258V521.19" stroke="#B4B4B4" stroke-width="2" stroke-linecap="round" stroke-linejoin="round" stroke-dasharray="5 5"/>
<g opacity="0.7" filter="url(#filter1_f)">
<path d="M459.135 245.355L440.847 210.305L403.51 245.355L419.512 301.742L438.561 256.785L471.326 299.456L459.135 245.355Z" fill="url(#paint1_linear)"/>
</g>
<path fill-rule="evenodd" clip-rule="evenodd" d="M458.995 244.718C459.188 245.138 459.181 245.624 458.974 246.037L452.116 259.753C451.77 260.445 450.96 260.768 450.232 260.503L433.469 254.408C432.891 254.198 432.496 253.661 432.467 253.046L430.942 220.246L429.416 253.046C429.388 253.661 428.993 254.198 428.415 254.408L411.651 260.503C410.924 260.768 410.113 260.445 409.767 259.753L402.91 246.037C402.703 245.624 402.695 245.138 402.888 244.718L429.551 186.822C429.65 186.602 429.8 186.408 429.988 186.257C430.256 186.042 430.592 185.922 430.942 185.922C431.291 185.922 431.627 186.042 431.895 186.257C432.084 186.408 432.234 186.602 432.332 186.822L458.995 244.718ZM432.327 190.455L457.611 245.356L450.753 259.071L450.752 259.071L457.61 245.356L432.327 190.456L432.327 190.455ZM429.556 190.455L429.556 190.455L404.273 245.356L411.13 259.071L411.131 259.071L404.273 245.356L429.556 190.455Z" fill="#535353"/>
<path d="M486.568 131.059V522.714" stroke="#B4B4B4" stroke-width="2" stroke-linecap="round" stroke-linejoin="round" stroke-dasharray="5 5"/>
<g opacity="0.7" filter="url(#filter2_f)">
<path d="M515.523 152.395L497.236 117.344L459.899 152.395L475.901 208.781L494.95 163.824L527.715 206.495L515.523 152.395Z" fill="url(#paint2_linear)"/>
</g>
<path fill-rule="evenodd" clip-rule="evenodd" d="M459.277 151.757C459.084 152.177 459.091 152.663 459.298 153.076L466.156 166.792C466.502 167.484 467.312 167.807 468.04 167.543L484.803 161.447C485.381 161.237 485.776 160.7 485.805 160.085L487.33 127.285L488.856 160.085C488.885 160.7 489.28 161.237 489.858 161.447L506.621 167.543C507.348 167.807 508.159 167.484 508.505 166.792L515.363 153.076C515.569 152.663 515.577 152.177 515.384 151.757L488.721 93.8612C488.622 93.6412 488.472 93.447 488.284 93.2958C488.016 93.0811 487.68 92.9606 487.33 92.9607C486.981 92.9606 486.645 93.0811 486.377 93.2958C486.189 93.447 486.039 93.6412 485.94 93.8612L459.277 151.757ZM486.567 110.88L484.282 160.015L467.519 166.11L467.519 166.11L484.282 160.015L486.568 110.885L486.567 110.88ZM488.093 110.88L490.379 160.015L507.142 166.11L507.142 166.11L490.378 160.015L488.093 110.885L488.093 110.88Z" fill="#535353"/>
<path d="M542.953 38.0986V522.714" stroke="#B4B4B4" stroke-width="2" stroke-linecap="round" stroke-linejoin="round" stroke-dasharray="5 5"/>
<g opacity="0.7" filter="url(#filter3_f)">
<path d="M571.908 59.4339L553.621 24.3831L516.284 59.4339L532.285 115.82L551.335 70.8635L584.1 113.534L571.908 59.4339Z" fill="url(#paint3_linear)"/>
</g>
<path fill-rule="evenodd" clip-rule="evenodd" d="M515.662 58.7967C515.468 59.2168 515.476 59.702 515.683 60.1157L522.541 73.8312C522.887 74.5235 523.697 74.8464 524.425 74.5819L541.188 68.4861C541.766 68.2759 542.161 67.739 542.19 67.1247L543.715 34.324L545.241 67.1247C545.269 67.739 545.664 68.2759 546.242 68.4861L563.006 74.5819C563.733 74.8464 564.543 74.5235 564.89 73.8312L571.747 60.1157C571.954 59.702 571.962 59.2168 571.768 58.7967L545.106 0.900555C545.007 0.680468 544.857 0.486303 544.669 0.335062C544.401 0.120455 544.064 -0.000101237 543.715 6.37891e-08C543.366 -0.000100979 543.03 0.120453 542.762 0.33506C542.573 0.486301 542.423 0.680468 542.325 0.900555L515.662 58.7967ZM542.33 4.53289L517.046 59.4341L523.904 73.1497L523.905 73.1494L517.047 59.434L542.33 4.53443L542.33 4.53289ZM545.101 4.53289L570.384 59.4341L563.526 73.1497L563.526 73.1495L570.384 59.434L545.101 4.53312L545.101 4.53289Z" fill="#535353"/>
<path d="M382.938 525C382.938 480.806 382.938 386.778 382.938 364.224C382.938 336.031 382.176 261.357 279.309 266.691C176.443 272.025 171.871 348.984 207.684 377.939C243.496 406.894 346.363 412.228 344.077 347.46C341.791 282.692 298.358 270.501 213.779 243.832C129.2 217.163 30.1436 211.829 32.4295 77.7214" stroke="#B4B4B4" stroke-width="2" stroke-linecap="round" stroke-linejoin="round" stroke-dasharray="5 5"/>
<defs>
<filter id="filter0_f" x="0.759766" y="62.0537" width="77.8157" height="101.437" filterUnits="userSpaceOnUse" color-interpolation-filters="sRGB">
<feFlood flood-opacity="0" result="BackgroundImageFix"/>
<feBlend mode="normal" in="SourceGraphic" in2="BackgroundImageFix" result="shape"/>
<feGaussianBlur stdDeviation="2.5" result="effect1_foregroundBlur"/>
</filter>
<filter id="filter1_f" x="398.51" y="205.305" width="77.8157" height="101.437" filterUnits="userSpaceOnUse" color-interpolation-filters="sRGB">
<feFlood flood-opacity="0" result="BackgroundImageFix"/>
<feBlend mode="normal" in="SourceGraphic" in2="BackgroundImageFix" result="shape"/>
<feGaussianBlur stdDeviation="2.5" result="effect1_foregroundBlur"/>
</filter>
<filter id="filter2_f" x="454.898" y="112.344" width="77.8157" height="101.437" filterUnits="userSpaceOnUse" color-interpolation-filters="sRGB">
<feFlood flood-opacity="0" result="BackgroundImageFix"/>
<feBlend mode="normal" in="SourceGraphic" in2="BackgroundImageFix" result="shape"/>
<feGaussianBlur stdDeviation="2.5" result="effect1_foregroundBlur"/>
</filter>
<filter id="filter3_f" x="511.283" y="19.3831" width="77.8157" height="101.437" filterUnits="userSpaceOnUse" color-interpolation-filters="sRGB">
<feFlood flood-opacity="0" result="BackgroundImageFix"/>
<feBlend mode="normal" in="SourceGraphic" in2="BackgroundImageFix" result="shape"/>
<feGaussianBlur stdDeviation="2.5" result="effect1_foregroundBlur"/>
</filter>
<linearGradient id="paint0_linear" x1="40.0493" y1="63.2438" x2="44.6212" y2="152.395" gradientUnits="userSpaceOnUse">
<stop/>
<stop offset="1" stop-opacity="0"/>
</linearGradient>
<linearGradient id="paint1_linear" x1="437.799" y1="206.495" x2="442.371" y2="295.646" gradientUnits="userSpaceOnUse">
<stop/>
<stop offset="1" stop-opacity="0"/>
</linearGradient>
<linearGradient id="paint2_linear" x1="494.188" y1="113.534" x2="498.76" y2="202.685" gradientUnits="userSpaceOnUse">
<stop/>
<stop offset="1" stop-opacity="0"/>
</linearGradient>
<linearGradient id="paint3_linear" x1="550.573" y1="20.5732" x2="555.145" y2="109.724" gradientUnits="userSpaceOnUse">
<stop/>
<stop offset="1" stop-opacity="0"/>
</linearGradient>
</defs>
</svg>
