<svg width="26" height="25" viewBox="0 0 26 25" fill="none" xmlns="http://www.w3.org/2000/svg">
<path d="M0 4.51923C0 2.02333 2.02333 0 4.51923 0H11.859V10.1923C11.859 11.1128 11.1128 11.859 10.1923 11.859H0V4.51923Z" fill="#8C8C8C"/>
<path d="M0 14.8077C0 13.8872 0.746192 13.141 1.66667 13.141H10.1923C11.1128 13.141 11.859 13.8872 11.859 14.8077V23.3333C11.859 24.2538 11.1128 25 10.1923 25H1.66667C0.746192 25 0 24.2538 0 23.3333V14.8077Z" fill="#393939"/>
<path d="M14.0059 19.0705C14.0059 15.7957 16.6606 13.141 19.9353 13.141V13.141C23.2101 13.141 25.8648 15.7957 25.8648 19.0705V19.0705C25.8648 22.3452 23.2101 25 19.9353 25V25C16.6606 25 14.0059 22.3452 14.0059 19.0705V19.0705Z" fill="#F8C143"/>
<path fill-rule="evenodd" clip-rule="evenodd" d="M14.8073 0C13.8868 0 13.1406 0.746192 13.1406 1.66667V10.1923C13.1406 11.1128 13.8868 11.859 14.8073 11.859H23.3329C24.2534 11.859 24.9996 11.1128 24.9996 10.1923V1.66667C24.9996 0.746192 24.2534 0 23.3329 0H14.8073ZM16.9479 3.46639L17.2503 3.30788L18.058 2.88553L18.0572 2.8849L18.0577 2.88459L22.936 6.47978L21.8236 7.05966L16.9479 3.46639ZM15.4965 4.2567L15.1942 4.41522L20.0698 8.00849L21.1822 7.42861L16.304 3.83342L16.3034 3.83373L16.3042 3.83436L15.4965 4.2567ZM16.8547 6.49136L16.8547 6.49137L19.4371 8.3945L18.3246 8.97438L15.7407 7.07004L16.8547 6.49136Z" fill="#444242"/>
</svg>
