<svg width="120" height="120" viewBox="0 0 120 120" fill="none" xmlns="http://www.w3.org/2000/svg">
<mask id="mask0" mask-type="alpha" maskUnits="userSpaceOnUse" x="0" y="0" width="120" height="120">
<rect width="120" height="120" fill="#C4C4C4"/>
</mask>
<g mask="url(#mask0)">
<path d="M9.61037 31.2998C10.4501 31.6903 11.447 31.3264 11.8373 30.4868C16.3036 20.8307 23.5717 12.3864 32.4303 6.47574C32.9272 6.12571 33.5716 6.65299 33.3591 7.20016C20.5676 40.8156 40.6683 80.0641 75.691 88.7072C77.6117 88.6701 78.024 85.9732 76.1262 85.4121C43.1983 76.8058 24.472 40.1265 36.5069 8.35619C37.8522 4.80115 33.7216 1.53668 30.5673 3.68825C21.2 9.93891 13.521 18.8615 8.79744 29.0729C8.40695 29.9122 8.77084 30.9093 9.61037 31.2998V31.2998Z" fill="#DDAE52"/>
<path d="M116.127 85.0659C115.039 83.6933 113.276 83.1984 111.635 83.8057C102.486 87.1918 92.5333 88.2298 82.8525 86.808C81.9363 86.6737 81.085 87.3069 80.9504 88.2231C80.8158 89.1393 81.4493 89.9907 82.3655 90.1252C92.6006 91.6286 103.124 90.5307 112.799 86.9502C113.164 86.8152 113.395 87.0161 113.499 87.1482C113.603 87.2796 113.746 87.5488 113.532 87.872C111.392 91.1011 108.912 94.1392 106.16 96.902C73.9248 129.506 17.8846 113.203 7.8404 68.5704C5.43826 58.0385 5.95235 47.0633 9.32701 36.832C9.61691 35.9527 9.13948 35.005 8.26016 34.7149C7.38197 34.425 6.43313 34.9024 6.14301 35.7817C-1.27485 57.6661 4.70378 83.2637 21.2657 99.4486C48.3513 126.974 95.3404 122.086 116.327 89.7231C117.292 88.2665 117.214 86.4381 116.127 85.0659Z" fill="#DDAE52"/>
<path d="M65.7906 44.5293C65.8364 44.574 65.8572 44.6379 65.8465 44.7005L64.3453 53.4867C63.8297 56.3558 66.9374 58.6071 69.5048 57.2215L77.3388 53.0869C77.3976 53.0558 77.4673 53.056 77.5261 53.0869L85.36 57.2215C86.5607 57.8561 87.9972 57.7584 89.1039 56.9562C90.206 56.1573 90.7483 54.8279 90.5194 53.4867L89.0183 44.7005C89.0075 44.6379 89.0283 44.574 89.0741 44.5293L95.4404 38.2994C97.5361 36.2891 96.3532 32.644 93.4685 32.2531L84.6885 30.9721C84.6235 30.9627 84.5676 30.922 84.539 30.8639L80.62 22.8924C80.0186 21.6686 78.7968 20.9085 77.4325 20.9085C76.0681 20.9085 74.8466 21.6686 74.2449 22.8924L70.326 30.8641C70.2974 30.9225 70.2415 30.9629 70.1762 30.9723L61.3962 32.2531C60.0504 32.4493 58.9532 33.374 58.5323 34.6662C58.1119 35.9572 58.4536 37.3493 59.4244 38.2994L65.7906 44.5293ZM61.7201 35.7046C61.7579 35.5886 61.8435 35.5761 61.8802 35.5707L70.6599 34.29C71.8186 34.1212 72.8184 33.3935 73.3345 32.3434L77.2534 24.3716C77.2698 24.3386 77.3077 24.2612 77.4322 24.2612C77.5567 24.2612 77.5947 24.3386 77.6111 24.3716L81.53 32.3436C82.0463 33.3937 83.0461 34.1215 84.2046 34.2902L92.9846 35.571C93.0212 35.5763 93.1068 35.5888 93.1446 35.7048C93.1819 35.8191 93.1236 35.8761 93.0954 35.9036L86.7292 42.1334C85.8971 42.9477 85.5175 44.1185 85.7133 45.2656L87.2145 54.0518C87.2212 54.0902 87.2348 54.1705 87.1362 54.2418C87.0354 54.3151 86.9581 54.2742 86.9248 54.2568L79.0912 50.1224C78.5717 49.8481 78.002 49.7111 77.4322 49.7111C76.8625 49.7111 76.2928 49.8481 75.7738 50.1224L67.9399 54.257C67.9068 54.2744 67.8293 54.3153 67.7285 54.242C67.6301 54.1707 67.6438 54.0905 67.6502 54.052L69.1514 45.2658C69.3472 44.1187 68.9677 42.9479 68.1355 42.1336L61.7693 35.9038C61.7411 35.8758 61.6828 35.8188 61.7201 35.7046V35.7046Z" fill="#DDAE52"/>
</g>
</svg>
