<svg width="32" height="33" viewBox="0 0 32 33" fill="none" xmlns="http://www.w3.org/2000/svg">
<path fill-rule="evenodd" clip-rule="evenodd" d="M16.0943 11.0936L15.9963 11.2538C14.3641 8.86225 8.97329 0 15.9963 0C22.8846 0 17.8318 8.2549 16.0943 11.0936ZM16.0943 21.8237L15.9963 21.6635C14.3641 24.055 8.97329 32.9173 15.9963 32.9173C22.8846 32.9173 17.8318 24.6624 16.0943 21.8237ZM19.0428 12.2381L19.2161 12.1656C22.2862 10.8807 31.2144 7.14421 25.629 3.1129C19.9343 -0.997247 19.119 9.34373 19.0428 12.2381ZM12.9371 20.8662L12.9514 20.6789C10.2283 21.6629 0.670504 25.694 6.36515 29.8041C11.9506 33.8354 12.6846 24.1848 12.9371 20.8662ZM11.0551 18.0936L10.8722 18.0509C7.63135 17.2933 -1.79311 15.0905 0.371389 21.6299C2.57822 28.2971 9.2976 20.3945 11.0551 18.0936ZM21.0598 14.6798L20.9385 14.8232C23.7217 15.6212 33.829 17.9542 31.6222 11.287C29.4577 4.74761 23.2087 12.1383 21.0598 14.6798ZM12.9004 12.2749L12.8839 12.0878C12.5919 8.77248 11.7426 -0.868687 6.20574 3.22902C0.560575 7.40686 10.1658 11.3235 12.9004 12.2749ZM19.2677 20.7129L19.0936 20.6424C19.2044 23.5357 20.1431 33.8662 25.7883 29.6884C31.3252 25.5907 22.353 21.961 19.2677 20.7129ZM11.0275 14.9099L10.9037 14.7686C8.71038 12.2654 2.3321 4.98592 0.283134 11.5624C-1.8059 18.2675 8.25874 15.7568 11.0275 14.9099ZM21.1487 17.9611C21.0856 17.977 21.0248 17.9923 20.9666 18.007C22.7643 20.2766 29.6219 28.0596 31.7109 21.3545C33.7599 14.778 24.3757 17.1466 21.1487 17.9611Z" fill="#FFD900"/>
<circle cx="15.997" cy="16.4587" r="8.581" fill="#FFA400"/>
</svg>
