<svg width="80" height="80" viewBox="0 0 80 80" fill="none" xmlns="http://www.w3.org/2000/svg">
<path fill-rule="evenodd" clip-rule="evenodd" d="M50.886 24.88L55.8143 17.675C51.231 18.005 45.7776 19.0817 40.5276 20.6017C36.7776 21.685 32.611 21.52 28.7526 20.8083C27.7804 20.6281 26.8148 20.4135 25.8576 20.165L29.0576 24.8767C35.916 27.3183 44.026 27.3183 50.886 24.88ZM27.1343 27.7167C35.1593 30.8167 44.8043 30.8167 52.8293 27.7133C56.1797 31.2444 58.9824 35.2572 61.1443 39.6183C63.396 44.215 64.6226 48.81 64.4226 52.77C64.2293 56.5917 62.726 59.8567 59.2926 62.2833C55.7143 64.8117 49.6977 66.6617 40.0643 66.6617C30.4226 66.6617 24.376 64.8433 20.7643 62.3433C17.306 59.9467 15.7876 56.7267 15.5726 52.9567C15.3476 49.04 16.5476 44.4683 18.7926 39.84C20.9343 35.4267 23.9243 31.1783 27.1343 27.7167ZM25.2176 16.5267C26.551 16.9233 27.9443 17.2683 29.3576 17.53C32.941 18.19 36.536 18.2867 39.601 17.3983C43.1747 16.3573 46.8094 15.5385 50.4843 14.9467C47.416 14.0233 43.8293 13.3333 40.0627 13.3333C34.321 13.3333 28.966 14.935 25.216 16.5267H25.2176ZM21.921 14.3683C26.011 12.3667 32.721 10 40.066 10C47.2577 10 53.7893 12.2683 57.8577 14.2433L58.0877 14.355C59.3143 14.9617 60.3043 15.535 61.001 16L54.8426 25C69.036 39.51 79.9993 69.995 40.0643 69.995C0.129316 69.995 10.7976 40.0633 25.1143 25L18.9976 16C19.4693 15.6917 20.0693 15.3333 20.781 14.9533C21.1343 14.7633 21.5143 14.5683 21.921 14.37V14.3683Z" fill="#DDAE52"/>
<path fill-rule="evenodd" clip-rule="evenodd" d="M38.3327 40C37.4486 40 36.6008 40.3511 35.9757 40.9763C35.3505 41.6014 34.9993 42.4492 34.9993 43.3333C34.9993 44.2173 35.3505 45.0652 35.9757 45.6903C36.6008 46.3154 37.4486 46.6666 38.3327 46.6666H41.666C43.4341 46.6666 45.1298 47.369 46.3801 48.6192C47.6303 49.8695 48.3327 51.5652 48.3327 53.3333C48.3327 55.1014 47.6303 56.7971 46.3801 58.0473C45.1298 59.2976 43.4341 60 41.666 60H38.3327C36.9538 59.9999 35.6089 59.5725 34.483 58.7764C33.3572 57.9804 32.5058 56.8549 32.046 55.555C31.9658 55.347 31.9282 55.1251 31.9353 54.9024C31.9424 54.6797 31.994 54.4606 32.0873 54.2582C32.1805 54.0558 32.3133 53.8741 32.478 53.7239C32.6427 53.5738 32.8358 53.4582 33.0459 53.3839C33.256 53.3097 33.4789 53.2783 33.7013 53.2917C33.9238 53.3051 34.1413 53.363 34.341 53.4619C34.5406 53.5609 34.7185 53.6988 34.8639 53.8677C35.0093 54.0365 35.1194 54.2328 35.1877 54.445C35.4179 55.095 35.8439 55.6577 36.4072 56.0555C36.9704 56.4534 37.6431 56.6669 38.3327 56.6666H41.666C42.5501 56.6666 43.3979 56.3154 44.023 55.6903C44.6482 55.0652 44.9993 54.2173 44.9993 53.3333C44.9993 52.4492 44.6482 51.6014 44.023 50.9763C43.3979 50.3511 42.5501 50 41.666 50H38.3327C36.5646 50 34.8689 49.2976 33.6186 48.0473C32.3684 46.7971 31.666 45.1014 31.666 43.3333C31.666 41.5652 32.3684 39.8695 33.6186 38.6192C34.8689 37.369 36.5646 36.6666 38.3327 36.6666H41.666C43.0449 36.6666 44.3898 37.0941 45.5157 37.8901C46.6415 38.6862 47.4929 39.8117 47.9527 41.1116C48.0329 41.3196 48.0705 41.5415 48.0634 41.7642C48.0563 41.9869 48.0047 42.206 47.9114 42.4084C47.8182 42.6108 47.6854 42.7925 47.5207 42.9426C47.356 43.0928 47.1629 43.2084 46.9528 43.2827C46.7427 43.3569 46.5198 43.3883 46.2974 43.3749C46.0749 43.3615 45.8574 43.3036 45.6577 43.2047C45.4581 43.1057 45.2802 42.9678 45.1348 42.7989C44.9894 42.6301 44.8793 42.4338 44.811 42.2216C44.5808 41.5716 44.1548 41.0089 43.5915 40.6111C43.0283 40.2132 42.3556 39.9997 41.666 40H38.3327Z" fill="#DDAE52"/>
<path fill-rule="evenodd" clip-rule="evenodd" d="M38.332 61.6667V35H41.6654V61.6667H38.332Z" fill="#DDAE52"/>
</svg>
