<svg width="120" height="120" viewBox="0 0 120 120" fill="none" xmlns="http://www.w3.org/2000/svg">
<mask id="mask0" mask-type="alpha" maskUnits="userSpaceOnUse" x="0" y="0" width="120" height="120">
<rect width="120" height="120" fill="#C4C4C4"/>
</mask>
<g mask="url(#mask0)">
<path d="M93.3109 98.7655V94.2174C93.3109 92.4237 91.9019 90.9571 90.1331 90.8559V41.8039C91.9019 41.7027 93.3109 40.2359 93.3109 38.4424V33.8943C93.3109 32.0354 91.7984 30.5229 89.9395 30.5229H85.8686C84.8462 27.1627 82.6495 24.295 79.4487 22.1672C77.997 21.2022 76.2932 20.3479 74.2399 19.5556C71.8625 18.6383 69.1084 18.0345 66.6782 17.502L65.4808 17.2397C63.33 16.7696 62.6808 16.6279 61.6983 16.076C61.678 16.0645 61.6511 16.0502 61.6303 16.0396C61.0418 15.7397 59.4853 14.6993 59.0496 13.3869V2.72895C59.0496 1.77388 58.2755 1 57.3206 1C56.3658 1 55.5917 1.77388 55.5917 2.72895V13.3869C55.156 14.6993 53.5997 15.7394 53.0135 16.0384C52.9897 16.0504 52.966 16.0629 52.9429 16.076C51.9606 16.6279 51.3112 16.7696 49.1604 17.2397L47.9631 17.502C45.5329 18.0348 42.7788 18.6383 40.4013 19.5556C38.348 20.3481 36.6444 21.2022 35.1926 22.1672C31.9915 24.295 29.7948 27.1627 28.7724 30.5229H24.7015C22.8426 30.5229 21.3301 32.0354 21.3301 33.8943V38.4424C21.3301 40.2361 22.7391 41.7027 24.5077 41.8039V90.8557C22.7388 90.9569 21.3301 92.4237 21.3301 94.2172V98.7653C21.3301 100.624 22.8426 102.137 24.7015 102.137H28.7754C29.6987 105.158 31.5848 107.806 34.2958 109.856C35.0573 110.433 36.1417 110.282 36.7177 109.521C37.2938 108.759 37.1435 107.675 36.3819 107.099C34.5771 105.733 33.2439 104.043 32.4477 102.137H82.1965C81.2986 104.295 79.7158 106.163 77.5346 107.613C76.296 108.436 74.8112 109.177 72.9948 109.878C70.8652 110.7 68.2492 111.273 65.9412 111.779L64.7429 112.042C62.489 112.534 61.4519 112.761 60.0337 113.553C59.7697 113.69 58.5622 114.349 57.4712 115.473C57.3829 115.564 57.2586 115.564 57.1703 115.474C56.0815 114.352 54.8697 113.689 54.6087 113.554C53.19 112.761 52.1531 112.534 49.8986 112.042L48.7019 111.779C46.7968 111.362 44.8272 110.93 43.012 110.355C42.1019 110.066 41.13 110.57 40.8412 111.48C40.5526 112.39 41.0563 113.362 41.9664 113.651C43.9323 114.274 46.0728 114.743 47.9615 115.157L49.1602 115.42C51.311 115.89 51.9602 116.032 52.9316 116.577C52.9556 116.591 52.9851 116.607 53.0098 116.62C53.0188 116.624 53.9162 117.086 54.6889 117.882C55.3888 118.603 56.3231 119 57.3204 119C58.3176 119 59.252 118.603 59.9521 117.882C60.7241 117.087 61.6213 116.625 61.6287 116.621C61.652 116.609 61.6755 116.597 61.6983 116.584C62.6806 116.032 63.33 115.89 65.4808 115.42L66.6809 115.157C69.1102 114.624 71.8634 114.021 74.2399 113.104C76.2939 112.311 77.9977 111.457 79.4489 110.493C82.65 108.365 84.8464 105.497 85.8688 102.137H89.9399C91.7984 102.137 93.3109 100.624 93.3109 98.7655V98.7655ZM37.1066 25.0469C38.346 24.223 39.8308 23.4821 41.6462 22.7816C43.7769 21.9593 46.3941 21.3857 48.7031 20.8799L49.8983 20.6178C52.1513 20.1254 53.1882 19.8991 54.6052 19.1079C54.9199 18.9458 56.1966 18.2459 57.3204 17.0288C58.4442 18.2457 59.7211 18.9456 60.0355 19.1079C61.4524 19.8991 62.4897 20.1257 64.7424 20.6178L65.9377 20.8799C68.2469 21.3857 70.8641 21.9593 72.9946 22.7816C74.81 23.4821 76.2948 24.2233 77.5341 25.0469C79.7158 26.4972 81.2982 28.3642 82.1961 30.5229H32.4445C33.3424 28.3645 34.9252 26.497 37.1066 25.0469V25.0469ZM89.853 98.6791H24.7877V94.3039H88.4042H89.853V98.6791ZM34.895 53.2203C33.3963 48.812 30.1759 46.2778 27.9653 44.9951V41.8139H39.3303V90.846H35.5418V57.1958C35.5418 55.8211 35.3242 54.4838 34.895 53.2203V53.2203ZM32.0839 57.1958V90.8462H28.1304V49.3173C29.4762 50.4482 30.8536 52.0762 31.6208 54.3333C31.9283 55.2372 32.0839 56.2003 32.0839 57.1958V57.1958ZM66.4785 68.1813C65.5237 68.1813 64.7496 68.9552 64.7496 69.9102V90.846H49.8912V58.6928C49.8912 57.5738 50.0666 56.4901 50.4124 55.4728C51.882 51.1493 55.1848 48.9268 57.0228 47.9867C57.209 47.8912 57.4315 47.8912 57.6182 47.9867C59.4562 48.9265 62.759 51.149 64.2286 55.473C64.5744 56.4901 64.7496 57.5731 64.7496 58.6928V61.8785C64.7496 62.8335 65.5237 63.6074 66.4785 63.6074C67.4334 63.6074 68.2075 62.8335 68.2075 61.8785V58.6928C68.2075 57.1939 67.9703 55.7363 67.5023 54.36C65.6401 48.8813 61.4966 46.0864 59.1925 44.908C58.02 44.3086 56.6203 44.3086 55.448 44.908C53.1439 46.0864 49.0007 48.8813 47.1382 54.36C46.6705 55.7368 46.4331 57.1944 46.4331 58.6928V90.8462H42.788V41.8139H71.8521V90.846H68.207V69.9102C68.2075 68.9552 67.4334 68.1813 66.4785 68.1813V68.1813ZM79.9109 53.2206C79.4816 54.4836 79.2638 55.8209 79.2638 57.1955V90.846H75.3102V41.8139H86.6752V45.0922C84.4723 46.4039 81.3724 48.9208 79.9109 53.2206ZM86.6752 49.3173V90.846H82.7217V57.1958C82.7217 56.2006 82.8775 55.2374 83.1848 54.3335C83.952 52.0762 85.3294 50.4482 86.6752 49.3173V49.3173ZM89.853 38.356H24.7877V33.9808H89.853V38.356Z" fill="#DDAE52"/>
<path d="M27.1353 19.4993C27.9597 19.1867 28.4925 18.4149 28.4925 17.5336C28.4925 16.6523 27.9597 15.8805 27.1349 15.5679C22.6041 13.8507 20.8945 10.9874 20.2583 8.88796C19.9876 7.9942 19.1792 7.39391 18.2465 7.39391H18.2462C17.3135 7.39391 16.5051 7.99421 16.234 8.8875V8.88796C15.5977 10.9874 13.8883 13.8505 9.35711 15.5682C8.53275 15.8808 8 16.6526 8 17.5339C8 18.4152 8.53275 19.187 9.35757 19.4996C13.8886 21.217 15.5979 24.0801 16.2342 26.18C16.5051 27.0735 17.314 27.6736 18.2467 27.6736C19.1794 27.6736 19.9879 27.0733 20.2585 26.18C20.8945 24.0799 22.6041 21.2165 27.1353 19.4993V19.4993ZM18.2462 22.3046C17.2699 20.7103 15.7199 18.9599 13.2648 17.5336C15.7199 16.1071 17.2699 14.357 18.2462 12.7627C19.2227 14.357 20.7726 16.1074 23.2277 17.5336C20.7726 18.9599 19.2225 20.7103 18.2462 22.3046V22.3046Z" fill="#DDAE52"/>
<path d="M111.371 105.345C106.84 103.628 105.131 100.765 104.495 98.665C104.224 97.7715 103.415 97.1714 102.482 97.1714C101.55 97.1714 100.741 97.7717 100.471 98.6655C99.834 100.765 98.1244 103.628 93.5934 105.345C92.7691 105.658 92.2363 106.43 92.2363 107.311C92.2363 108.192 92.7691 108.964 93.5939 109.277C98.1244 110.994 99.834 113.857 100.471 115.957C100.741 116.851 101.55 117.451 102.482 117.451H102.483C103.415 117.451 104.224 116.851 104.495 115.957C105.131 113.858 106.84 110.994 111.372 109.277C112.196 108.964 112.729 108.192 112.729 107.311C112.729 106.43 112.196 105.658 111.371 105.345ZM102.483 112.082C101.506 110.488 99.9564 108.737 97.5013 107.311C99.9564 105.885 101.506 104.134 102.483 102.54C103.459 104.134 105.009 105.885 107.464 107.311C105.009 108.738 103.459 110.488 102.483 112.082Z" fill="#DDAE52"/>
</g>
</svg>
