<svg width="120" height="120" viewBox="0 0 120 120" fill="none" xmlns="http://www.w3.org/2000/svg">
<mask id="mask0" mask-type="alpha" maskUnits="userSpaceOnUse" x="0" y="0" width="120" height="120">
<rect width="120" height="120" fill="#C4C4C4"/>
</mask>
<g mask="url(#mask0)">
<path d="M60.0002 87.8749C61.2732 87.8749 62.3052 86.8413 62.3052 85.5663C62.3052 84.2913 61.2732 83.2577 60.0002 83.2577C58.7273 83.2577 57.6953 84.2913 57.6953 85.5663C57.6953 86.8413 58.7273 87.8749 60.0002 87.8749Z" fill="#D6A13D"/>
<path d="M119 63.6974V56.5103C119 55.652 118.575 54.8545 117.863 54.3769C117.152 53.8992 116.254 53.8083 115.461 54.1349L110.613 56.1315V52.8205C110.613 51.8806 110.15 51.0034 109.374 50.4743C108.598 49.9452 107.613 49.8353 106.74 50.1797L104.652 51.0038V46.5673C104.652 45.7492 104.244 44.9946 103.561 44.5484C102.872 44.099 102.011 44.0297 101.257 44.3631C99.7388 45.0339 97.4371 45.2693 94.5982 45.0431C90.0137 44.6782 85.4191 44.9739 80.9422 45.9219C68.3167 48.5953 62.4667 53.5274 60.003 56.438C59.4672 55.803 58.7732 55.074 57.8781 54.2901C54.3738 51.2208 49.5584 48.7834 43.5657 47.0454C42.6496 46.7797 41.6897 47.3081 41.4244 48.2271C41.1589 49.1456 41.6872 50.1059 42.6042 50.3718C53.8055 53.6204 57.5176 58.6917 58.2713 59.9103V61.5825C47.457 54.4112 34.138 51.6266 33.5281 51.502C32.5936 51.3118 31.6802 51.9152 31.4892 52.8519C31.2981 53.7887 31.9013 54.7033 32.8365 54.8951C32.9881 54.926 47.7882 58.0283 58.2713 65.8094V67.941L48.312 64.0112L18.8056 52.3681V48.0456C20.6707 48.559 22.9734 48.7107 25.6761 48.4953C28.8526 48.2423 32.0591 48.3326 35.2057 48.7638C36.1506 48.8942 37.0236 48.2305 37.1527 47.2829C37.2822 46.3356 36.6201 45.4623 35.6743 45.3328C32.2818 44.8681 28.8261 44.7707 25.4018 45.0431C22.5643 45.2696 20.2617 45.0339 18.7433 44.3631C17.9895 44.0297 17.1275 44.099 16.4396 44.5484C15.7565 44.9946 15.3483 45.7492 15.3483 46.5673V51.0038L13.2598 50.1797C12.3868 49.8353 11.4022 49.9452 10.6264 50.4743C9.85069 51.0034 9.38745 51.8806 9.38745 52.8205V56.1315L4.53908 54.1349C3.7465 53.8083 2.84836 53.899 2.1369 54.3769C1.42498 54.8545 1 55.652 1 56.5103V63.6974C1 64.6635 1.53261 65.5384 2.38973 65.9802L39.8066 85.2887L2.58931 100.615C1.62365 101.012 1 101.944 1 102.99V115.431C1 116.288 1.42383 117.085 2.13414 117.563C2.56396 117.852 3.06177 118 3.5635 118C3.891 118 4.22011 117.937 4.53309 117.809L13.8862 113.985L19.9307 115.63C20.5507 115.799 21.2061 115.729 21.7772 115.435L60 95.7095L80.5027 106.29C81.3506 106.727 82.3937 106.394 82.8312 105.544C83.2686 104.694 82.9349 103.649 82.086 103.212L63.7744 93.7621L76.1579 87.3716L115.543 103.59V114.099L107.141 110.665C106.623 110.453 106.04 110.417 105.5 110.564L99.498 112.197L89.2764 106.922C88.4281 106.484 87.3854 106.818 86.948 107.668C86.5106 108.519 86.8443 109.563 87.6931 110.001L98.223 115.434C98.7939 115.729 99.4503 115.798 100.069 115.63L106.114 113.985L115.467 117.809C115.78 117.937 116.109 118 116.437 118C116.938 118 117.437 117.852 117.866 117.563C118.576 117.085 119 116.288 119 115.431V102.989C119 101.944 118.376 101.012 117.411 100.614L80.1937 85.289L117.61 65.9807C118.467 65.5384 119 64.6635 119 63.6974V63.6974ZM61.7287 65.8094C72.2118 58.0283 87.0119 54.926 87.1635 54.8951C88.0985 54.7037 88.7021 53.7894 88.5113 52.8524C88.3205 51.9154 87.4069 51.3113 86.4719 51.502C85.862 51.6266 72.5433 54.4112 61.7287 61.5825V59.9082C62.0784 59.339 63.0639 57.9364 65.1212 56.2921C67.8244 54.1319 72.8874 51.167 81.6574 49.3099C85.8093 48.4304 90.0711 48.1564 94.3242 48.4951C97.0269 48.7102 99.3293 48.5588 101.195 48.0452V52.3679L71.6882 64.0109L61.729 67.9407V65.8094H61.7287ZM12.8447 53.7381L59.3662 72.0951C59.7732 72.2558 60.2265 72.2558 60.6336 72.0951L107.155 53.7381V57.5553L60 76.9735L12.8447 57.5553V53.7381ZM4.45749 63.152V57.8459L55.4538 78.8458L44.005 83.5602L4.45749 63.152ZM3.90345 103.818L3.90829 103.816C3.90667 103.816 3.90506 103.817 3.90345 103.818ZM115.543 63.152L20.5018 112.197L14.4999 110.564C13.9595 110.417 13.3764 110.452 12.859 110.664L4.45726 114.099V103.59L115.542 57.8459V63.152H115.543Z" fill="#D6A13D"/>
<path d="M68.6565 16.3699C69.9295 16.3699 70.9614 15.3363 70.9614 14.0613C70.9614 12.7863 69.9295 11.7527 68.6565 11.7527C67.3835 11.7527 66.3516 12.7863 66.3516 14.0613C66.3516 15.3363 67.3835 16.3699 68.6565 16.3699Z" fill="#D6A13D"/>
<path d="M76.1523 16.337C77.4023 16.096 78.2207 14.8857 77.9801 13.6336C77.7395 12.3815 76.5311 11.5619 75.281 11.8029C74.031 12.0438 73.2126 13.2542 73.4532 14.5063C73.6938 15.7583 74.9022 16.578 76.1523 16.337Z" fill="#D6A13D"/>
<path d="M88.1994 39.7213C89.1543 39.7213 89.9282 38.9462 89.9282 37.9898V18.1294C89.9282 17.173 89.1543 16.3978 88.1994 16.3978C87.2446 16.3978 86.4707 17.173 86.4707 18.1294V37.99C86.4707 38.9462 87.2446 39.7213 88.1994 39.7213Z" fill="#D6A13D"/>
<path d="M33.1484 18.1294V37.99C33.1484 38.9464 33.9223 39.7216 34.8772 39.7216C35.832 39.7216 36.6059 38.9464 36.6059 37.99V18.1294C36.6059 17.173 35.832 16.3978 34.8772 16.3978C33.9223 16.3978 33.1484 17.173 33.1484 18.1294Z" fill="#D6A13D"/>
<path d="M45.0949 40.8279C46.3871 41.5433 48.0689 41.8782 49.8257 41.8782C52.9327 41.8782 56.2735 40.8295 58.1046 38.98C59.0055 38.0701 59.6902 36.9057 60.1286 35.5745C62.239 36.8667 64.6515 37.5643 67.0357 37.5643C73.2455 37.5643 79.2003 33.7488 79.139 27.0537C79.1111 24.0094 77.8574 21.2061 75.8671 19.7373C74.7315 18.8998 72.8131 18.0709 70.1206 18.8811C66.4928 19.9723 65.0793 23.4734 65.8504 26.0916C66.3333 27.7308 67.4483 28.9826 69.0758 29.7118C71.0175 30.5821 73.2861 30.5306 75.0994 30.0419C74.222 31.9565 72.1805 33.6426 67.8627 34.0615C65.4679 34.2933 62.9355 33.5103 60.9156 31.912C60.8433 31.8547 60.767 31.8062 60.6891 31.7622C60.676 29.8707 60.312 28.065 59.9574 26.3123L59.3381 23.2523C59.1486 22.3151 58.2378 21.7098 57.3003 21.8991C56.3646 22.0891 55.7598 23.0027 55.9495 23.9399L56.5688 26.9999C56.9288 28.7797 57.301 30.6202 57.2221 32.363C57.1426 34.1135 56.5842 35.5973 55.6494 36.5417C53.8785 38.33 48.9815 39.0223 46.7667 37.7967C45.7584 37.2386 45.1 36.2704 45.0048 35.207C44.916 34.2123 45.3207 33.2947 46.1449 32.6232C46.8854 32.0195 46.9972 30.9291 46.3945 30.1874C45.7921 29.4457 44.7035 29.3335 43.9624 29.9374C42.2449 31.3374 41.3696 33.3704 41.5611 35.5154C41.7586 37.7266 43.0794 39.7125 45.0949 40.8279V40.8279ZM75.0706 26.3848C73.8754 26.9522 71.9168 27.1915 70.4877 26.5507C69.7919 26.2391 69.3598 25.7682 69.1664 25.1117C68.7896 23.8324 69.8696 22.5722 71.1148 22.1978C71.5193 22.0762 71.8963 22.015 72.2487 22.015C72.8359 22.015 73.3545 22.1846 73.8161 22.5254C74.7652 23.2257 75.4368 24.626 75.6269 26.2273C75.4389 26.2474 75.251 26.2991 75.0706 26.3848V26.3848Z" fill="#D6A13D"/>
<path d="M30.2129 13.1191C30.4954 13.7728 31.132 14.1636 31.8006 14.1636C32.0294 14.1636 32.2624 14.1177 32.4862 14.0207C35.4355 12.7428 38.619 11.0865 38.7531 11.0166C39.4803 10.6378 39.8416 9.79961 39.6188 9.00967C39.3959 8.21974 38.6483 7.69412 37.8324 7.75345C35.521 7.91804 34.1497 7.4896 33.7593 6.47968C33.4606 5.70683 33.7529 5.20175 33.9534 4.96953C34.2343 4.64405 34.772 4.35088 35.4385 4.50416C36.3701 4.71699 37.2968 4.13528 37.5097 3.20315C37.7229 2.27102 37.1415 1.34213 36.2111 1.1286C34.403 0.714246 32.5365 1.31743 31.3389 2.70362C30.1504 4.07942 29.8501 5.95868 30.5353 7.7306C30.8672 8.58839 31.4717 9.50829 32.5655 10.192C32.0829 10.4146 31.5932 10.6346 31.1131 10.8425C30.2368 11.222 29.8338 12.2414 30.2129 13.1191Z" fill="#D6A13D"/>
</g>
</svg>
