<svg width="80" height="80" viewBox="0 0 80 80" fill="none" xmlns="http://www.w3.org/2000/svg">
<path d="M73.5375 47.5L69.25 43.2125C69.7377 42.2115 69.994 41.1135 70 40C70 38.5166 69.5601 37.0666 68.736 35.8332C67.9119 34.5999 66.7406 33.6386 65.3701 33.0709C63.9997 32.5032 62.4917 32.3547 61.0368 32.6441C59.582 32.9335 58.2456 33.6478 57.1967 34.6967C56.1478 35.7456 55.4335 37.082 55.1441 38.5368C54.8547 39.9917 55.0032 41.4997 55.5709 42.8701C56.1386 44.2406 57.0999 45.4119 58.3332 46.236C59.5666 47.0601 61.0166 47.5 62.5 47.5C63.6144 47.4944 64.7132 47.2381 65.715 46.75L70 51.035V70H55V62.5C54.9947 57.8603 53.1493 53.4122 49.8685 50.1315C46.5878 46.8507 42.1397 45.0053 37.5 45H22.5C17.8603 45.0053 13.4122 46.8507 10.1315 50.1315C6.85074 53.4122 5.00529 57.8603 5 62.5V75H75V51.035C75.0018 50.3784 74.8735 49.7279 74.6225 49.1211C74.3715 48.5144 74.0027 47.9634 73.5375 47.5ZM10 62.5C10.004 59.186 11.3222 56.0089 13.6655 53.6656C16.0089 51.3222 19.186 50.004 22.5 50H37.5C40.814 50.004 43.9911 51.3222 46.3344 53.6656C48.6778 56.0089 49.996 59.186 50 62.5V70H10V62.5Z" fill="#DDAE52"/>
<path d="M30 10C32.4723 10 34.889 10.7331 36.9446 12.1066C39.0002 13.4801 40.6024 15.4324 41.5485 17.7165C42.4946 20.0005 42.7421 22.5139 42.2598 24.9386C41.7775 27.3634 40.587 29.5907 38.8388 31.3388C37.0907 33.087 34.8634 34.2775 32.4386 34.7598C30.0139 35.2421 27.5005 34.9946 25.2165 34.0485C22.9324 33.1024 20.9802 31.5002 19.6066 29.4446C18.2331 27.389 17.5 24.9723 17.5 22.5C17.5 19.1848 18.817 16.0054 21.1612 13.6612C23.5054 11.317 26.6848 10 30 10ZM30 5C26.5388 5 23.1554 6.02636 20.2775 7.94928C17.3997 9.87221 15.1566 12.6053 13.8321 15.803C12.5076 19.0007 12.161 22.5194 12.8363 25.9141C13.5115 29.3087 15.1782 32.4269 17.6256 34.8744C20.0731 37.3218 23.1913 38.9885 26.5859 39.6637C29.9806 40.339 33.4993 39.9924 36.697 38.6679C39.8947 37.3434 42.6278 35.1003 44.5507 32.2225C46.4737 29.3446 47.5 25.9612 47.5 22.5C47.5 17.8587 45.6563 13.4075 42.3744 10.1256C39.0925 6.84374 34.6413 5 30 5Z" fill="#DDAE52"/>
</svg>
