<svg width="80" height="80" viewBox="0 0 80 80" fill="none" xmlns="http://www.w3.org/2000/svg">
<path d="M67.5 12.5H12.5C11.1744 12.5015 9.90347 13.0288 8.96611 13.9661C8.02875 14.9035 7.50149 16.1744 7.5 17.5V62.5003C7.50004 63.1569 7.62941 63.8071 7.88072 64.4137C8.13203 65.0203 8.50037 65.5715 8.96469 66.0358C9.42901 66.5 9.98023 66.8683 10.5869 67.1195C11.1935 67.3708 11.8437 67.5 12.5003 67.5L16.6847 67.4997C17.1574 67.4996 17.6204 67.3654 18.02 67.1128C18.4196 66.8602 18.7393 66.4995 18.9422 66.0725C20.1597 63.5074 22.0798 61.3404 24.4797 59.823C26.8796 58.3056 29.6607 57.5001 32.5 57.5001C35.3393 57.5001 38.1204 58.3056 40.5203 59.823C42.9202 61.3404 44.8403 63.5074 46.0578 66.0725C46.2607 66.4995 46.5805 66.8603 46.9801 67.1129C47.3798 67.3655 47.8428 67.4996 48.3156 67.4997L67.5 67.5C68.8256 67.4985 70.0965 66.9712 71.0339 66.0339C71.9712 65.0965 72.4985 63.8256 72.5 62.5V17.5C72.4985 16.1744 71.9712 14.9035 71.0339 13.9661C70.0965 13.0288 68.8256 12.5015 67.5 12.5ZM25 45C25 43.5166 25.4399 42.0666 26.264 40.8332C27.0881 39.5999 28.2594 38.6386 29.6299 38.0709C31.0003 37.5032 32.5083 37.3547 33.9632 37.6441C35.418 37.9335 36.7544 38.6478 37.8033 39.6967C38.8522 40.7456 39.5665 42.082 39.8559 43.5368C40.1453 44.9917 39.9968 46.4997 39.4291 47.8701C38.8614 49.2406 37.9001 50.4119 36.6668 51.236C35.4334 52.0601 33.9834 52.5 32.5 52.5C30.5116 52.4978 28.6052 51.7069 27.1992 50.3008C25.7931 48.8948 25.0022 46.9884 25 45ZM67.5 62.5L49.8231 62.4997C47.7349 58.9104 44.5872 56.0551 40.8119 54.3256C42.7045 52.6406 44.0403 50.4202 44.6422 47.9587C45.2442 45.4972 45.0837 42.9109 44.1823 40.5427C43.2808 38.1744 41.6809 36.1361 39.5945 34.6979C37.5082 33.2597 35.034 32.4895 32.5 32.4895C29.966 32.4895 27.4918 33.2597 25.4055 34.6979C23.3191 36.1361 21.7192 38.1744 20.8177 40.5427C19.9163 42.9109 19.7558 45.4972 20.3578 47.9587C20.9597 50.4202 22.2955 52.6406 24.1881 54.3256C20.4128 56.0553 17.2651 58.9106 15.1769 62.5H12.5V17.5H67.5V62.5ZM17.5 30V25C17.5 24.337 17.7634 23.7011 18.2322 23.2322C18.7011 22.7634 19.337 22.5 20 22.5H60C60.663 22.5 61.2989 22.7634 61.7678 23.2322C62.2366 23.7011 62.5 24.337 62.5 25V55C62.5 55.663 62.2366 56.2989 61.7678 56.7678C61.2989 57.2366 60.663 57.5 60 57.5H55C54.337 57.5 53.7011 57.2366 53.2322 56.7678C52.7634 56.2989 52.5 55.663 52.5 55C52.5 54.337 52.7634 53.7011 53.2322 53.2322C53.7011 52.7634 54.337 52.5 55 52.5H57.5V27.5H22.5V30C22.5 30.663 22.2366 31.2989 21.7678 31.7678C21.2989 32.2366 20.663 32.5 20 32.5C19.337 32.5 18.7011 32.2366 18.2322 31.7678C17.7634 31.2989 17.5 30.663 17.5 30Z" fill="#DDAE52"/>
</svg>
