<svg width="486" height="521" viewBox="0 0 486 521" fill="none" xmlns="http://www.w3.org/2000/svg">
<path fill-rule="evenodd" clip-rule="evenodd" d="M381.794 339C431.279 352.248 431.961 386.731 426.116 402.317C393.776 395.303 385.366 375.691 385.204 366.762C389.49 370.658 395.757 372.282 398.354 372.607C385.496 363.645 381.957 346.468 381.794 339ZM440.727 399.881C451.767 398.096 473.846 386.341 473.846 353.612C471.574 357.67 464.398 366.665 453.877 370.171C440.727 374.555 438.779 389.166 440.727 399.881ZM440.237 432.027C464.103 425.695 473.844 417.902 485.046 392.089C484.374 392.132 483.605 392.168 482.763 392.208L482.762 392.208C474.244 392.606 458.127 393.361 456.797 406.213C456.148 405.564 455.239 403.193 456.797 398.907C446.082 403.291 440.237 413.032 440.237 432.027ZM423.192 424.234C420.108 420.5 411.99 412.058 400.301 410.11C385.689 407.674 375.948 387.705 374 383.322C374 395.011 378.871 419.851 398.353 425.695C411.211 429.981 419.945 426.669 423.192 424.234Z" fill="#22138D"/>
<path fill-rule="evenodd" clip-rule="evenodd" d="M434.347 437.286C438.119 431.253 444.871 422.965 452.947 414.651C462.496 404.821 470.098 399.432 482.17 394.682C470.473 399.284 463.593 406.007 454.123 415.756C444.657 425.501 437.387 435.512 434.274 441.258L433.004 443.603L432.464 440.991C431.063 434.219 426.732 428.571 421.227 424.663C415.715 420.751 409.104 418.642 403.261 418.876C396.684 419.139 390.207 414.427 384.68 407.426C379.112 400.373 377.724 395.498 374.531 385.428C377.67 395.327 380.818 399.39 386.209 406.218C391.64 413.098 397.583 417.153 403.183 416.929C409.516 416.676 416.543 418.95 422.354 423.074C426.094 425.728 429.362 429.172 431.625 433.246C430.006 421.704 426.295 405.96 419.733 390.136C411.573 370.456 403.524 353.522 385.246 341.594L383.785 340.132C402.524 352.362 413.297 369.529 421.533 389.39C427.343 403.401 430.945 417.357 432.851 428.474C433.311 423.361 434.158 417.602 435.55 411.724C438.26 400.285 443.063 388.283 451.22 379.727L451.228 379.719L451.237 379.711C461.914 369.035 461.75 371.251 468.045 362.05C461.679 371.355 463.374 370.33 452.623 381.08C444.81 389.279 440.117 400.894 437.446 412.173C435.208 421.621 434.406 430.754 434.347 437.286Z" fill="#AAAFB1"/>
<path fill-rule="evenodd" clip-rule="evenodd" d="M473.834 356.672C468.182 364.593 462.118 371.791 452.67 381.238C447.728 386.424 444.035 392.977 441.312 399.946C441.13 399.98 440.95 400.011 440.774 400.04C440.602 399.097 440.461 398.124 440.355 397.131C443.059 390.758 446.618 384.762 451.268 379.886L451.276 379.877L451.284 379.869C458.273 372.881 463.384 367.148 467.846 361.44C470.788 358.516 472.854 355.627 473.893 353.77C473.893 354.756 473.873 355.724 473.834 356.672ZM386.241 340.431C402.618 352.791 413.999 371.267 421.581 389.548C423.341 393.794 424.899 398.034 426.268 402.192C426.233 402.287 426.198 402.381 426.163 402.475C425.484 402.328 424.816 402.175 424.157 402.017C422.867 398.157 421.412 394.228 419.781 390.295C411.776 370.99 399.572 351.679 381.858 339.69C381.851 339.508 381.845 339.331 381.841 339.158C383.353 339.563 384.819 339.988 386.241 340.431ZM374.339 384.125C377.409 392.579 381.572 400.443 386.256 406.377C391.687 413.256 397.63 417.312 403.23 417.088C409.412 416.84 416.254 419.001 421.982 422.94C422.466 423.475 422.886 423.965 423.239 424.393C422.861 424.676 422.409 424.971 421.884 425.265C421.682 425.115 421.479 424.967 421.274 424.822C415.762 420.91 409.152 418.8 403.308 419.034C396.732 419.297 390.255 414.586 384.727 407.584C380.817 402.631 377.287 396.417 374.425 389.668C374.161 387.373 374.047 385.272 374.047 383.48C374.13 383.668 374.228 383.884 374.339 384.125ZM452.773 414.557C448.009 419.461 443.783 424.443 440.344 428.944C440.304 429.993 440.284 431.073 440.284 432.185C440.311 432.178 440.338 432.171 440.365 432.164C443.986 427.238 448.713 421.532 454.17 415.915C463.049 406.775 473.778 397.955 484.722 393.097C484.846 392.816 484.969 392.532 485.093 392.247C484.421 392.291 483.652 392.327 482.809 392.366L482.809 392.366C482.411 392.385 481.997 392.404 481.568 392.426C471.134 397.587 461.097 405.988 452.773 414.557Z" fill="#130864"/>
<rect x="413" y="498" width="39" height="7" fill="url(#paint0_linear)" fill-opacity="0.7"/>
<path d="M415.08 452.078C415.035 450.944 415.943 450 417.078 450H446.918C448.054 450 448.961 450.944 448.917 452.078L447.074 499.078C447.031 500.152 446.149 501 445.075 501H418.921C417.847 501 416.965 500.152 416.923 499.078L415.08 452.078Z" fill="#415A66"/>
<rect x="412" y="440" width="40" height="14" fill="#415A66"/>
<path fill-rule="evenodd" clip-rule="evenodd" d="M415.235 460L415 454H448.686L448.451 460H415.235Z" fill="#1F2D34"/>
<path d="M28 0H177V166H28V0Z" fill="#FAFAFA"/>
<mask id="mask0" mask-type="alpha" maskUnits="userSpaceOnUse" x="37" y="0" width="115" height="166">
<path d="M37 0H152V166H37V0Z" fill="#FAFAFA"/>
</mask>
<g mask="url(#mask0)">
<rect x="113.207" y="-15" width="42" height="207" transform="rotate(21.6016 113.207 -15)" fill="white"/>
</g>
<path fill-rule="evenodd" clip-rule="evenodd" d="M170 7H35V159H170V7ZM28 0V166H177V0H28Z" fill="#EFEFEF"/>
<path d="M177 0H326V166H177V0Z" fill="#FAFAFA"/>
<mask id="mask1" mask-type="alpha" maskUnits="userSpaceOnUse" x="186" y="0" width="115" height="166">
<path d="M186 0H301V166H186V0Z" fill="#FAFAFA"/>
</mask>
<g mask="url(#mask1)">
<rect x="262.207" y="-15" width="42" height="207" transform="rotate(21.6016 262.207 -15)" fill="white"/>
</g>
<path fill-rule="evenodd" clip-rule="evenodd" d="M319 7H184V159H319V7ZM177 0V166H326V0H177Z" fill="#EFEFEF"/>
<path d="M364 20H454V153H364V20Z" fill="white"/>
<path fill-rule="evenodd" clip-rule="evenodd" d="M447 27H371V146H447V27ZM364 20V153H454V20H364Z" fill="#EFEFEF"/>
<rect x="383" y="39" width="52" height="7" fill="#EFEFEF"/>
<rect x="383" y="51" width="52" height="7" fill="#EFEFEF"/>
<rect x="383" y="63" width="26" height="7" fill="#EFEFEF"/>
<rect x="383" y="87" width="52" height="7" fill="#EFEFEF"/>
<rect x="383" y="99" width="52" height="7" fill="#EFEFEF"/>
<rect x="383" y="111" width="30" height="7" fill="#EFEFEF"/>
<rect width="16" height="110" transform="matrix(-1 0 0 1 16 231)" fill="#E6E6E6"/>
<path fill-rule="evenodd" clip-rule="evenodd" d="M232 231H16V341H23L27 333H222L225 341H232V231Z" fill="#FAFAFA"/>
<rect x="27" y="241" width="195" height="35" fill="#F0EEEE"/>
<path fill-rule="evenodd" clip-rule="evenodd" d="M124.5 268C129.747 268 134 263.747 134 258.5C134 253.253 129.747 249 124.5 249C119.253 249 115 253.253 115 258.5C115 263.747 119.253 268 124.5 268ZM124.5 270C130.851 270 136 264.851 136 258.5C136 252.149 130.851 247 124.5 247C118.149 247 113 252.149 113 258.5C113 264.851 118.149 270 124.5 270Z" fill="white"/>
<rect x="27" y="286" width="195" height="35" fill="#F0EEEE"/>
<path fill-rule="evenodd" clip-rule="evenodd" d="M124.5 313C129.747 313 134 308.747 134 303.5C134 298.253 129.747 294 124.5 294C119.253 294 115 298.253 115 303.5C115 308.747 119.253 313 124.5 313ZM124.5 315C130.851 315 136 309.851 136 303.5C136 297.149 130.851 292 124.5 292C118.149 292 113 297.149 113 303.5C113 309.851 118.149 315 124.5 315Z" fill="white"/>
<rect x="319" y="261" width="105" height="80" fill="#F0EEEE"/>
<path d="M319 261H424L429 253H319V261Z" fill="#C4C4C4"/>
<rect width="82" height="88" transform="matrix(-1 0 0 1 319 253)" fill="#E5E5E5"/>
<rect x="319" y="261" width="105" height="5" fill="#E9E9E9"/>
<rect x="247" y="263" width="62" height="19" fill="#E0E0E0"/>
<path fill-rule="evenodd" clip-rule="evenodd" d="M278.5 277.5C281.261 277.5 283.5 275.261 283.5 272.5C283.5 269.739 281.261 267.5 278.5 267.5C275.739 267.5 273.5 269.739 273.5 272.5C273.5 275.261 275.739 277.5 278.5 277.5ZM278.5 279C282.09 279 285 276.09 285 272.5C285 268.91 282.09 266 278.5 266C274.91 266 272 268.91 272 272.5C272 276.09 274.91 279 278.5 279Z" fill="#F2F2F2"/>
<rect x="247" y="288" width="62" height="19" fill="#E0E0E0"/>
<path fill-rule="evenodd" clip-rule="evenodd" d="M278.5 302.5C281.261 302.5 283.5 300.261 283.5 297.5C283.5 294.739 281.261 292.5 278.5 292.5C275.739 292.5 273.5 294.739 273.5 297.5C273.5 300.261 275.739 302.5 278.5 302.5ZM278.5 304C282.09 304 285 301.09 285 297.5C285 293.91 282.09 291 278.5 291C274.91 291 272 293.91 272 297.5C272 301.09 274.91 304 278.5 304Z" fill="#F2F2F2"/>
<rect x="247" y="313" width="62" height="19" fill="#E0E0E0"/>
<path fill-rule="evenodd" clip-rule="evenodd" d="M278.5 327.5C281.261 327.5 283.5 325.261 283.5 322.5C283.5 319.739 281.261 317.5 278.5 317.5C275.739 317.5 273.5 319.739 273.5 322.5C273.5 325.261 275.739 327.5 278.5 327.5ZM278.5 329C282.09 329 285 326.09 285 322.5C285 318.91 282.09 316 278.5 316C274.91 316 272 318.91 272 322.5C272 326.09 274.91 329 278.5 329Z" fill="#F2F2F2"/>
<rect x="85" y="479" width="334" height="4" fill="url(#paint1_linear)" fill-opacity="0.7"/>
<ellipse cx="247" cy="505.5" rx="158" ry="15.5" fill="#EBEBEB"/>
<path fill-rule="evenodd" clip-rule="evenodd" d="M167.766 234.562C168.285 235.537 167.914 236.748 166.938 237.266L135.866 253.773L128.987 313.23C128.86 314.327 127.868 315.114 126.77 314.987C125.673 314.86 124.886 313.867 125.013 312.77L132.013 252.27C132.089 251.617 132.481 251.042 133.062 250.734L165.062 233.734C166.037 233.216 167.248 233.586 167.766 234.562Z" fill="#75868F"/>
<circle cx="134.5" cy="253.5" r="4.5" fill="#22138D"/>
<path d="M175.187 233.181C176.262 233.862 176.504 235.328 175.705 236.319L168.67 245.035C167.871 246.026 166.387 246.099 165.494 245.191L161.733 241.369C160.974 240.598 160.914 239.379 161.594 238.537L167.859 230.774C168.539 229.931 169.742 229.732 170.657 230.312L175.187 233.181Z" fill="url(#paint2_linear)"/>
<path d="M195.526 240.277C196.574 240.97 196.799 242.415 196.009 243.392L179.55 263.787C178.761 264.765 177.302 264.851 176.403 263.973L163.393 251.257C162.607 250.489 162.534 249.25 163.224 248.395L177.517 230.685C178.207 229.83 179.433 229.64 180.35 230.245L195.526 240.277Z" fill="#22138D"/>
<path d="M111 322C111 316.477 115.477 312 121 312H132C137.523 312 142 316.477 142 322V322H111V322Z" fill="#22138D"/>
<rect x="233" y="319" width="46" height="3" rx="1.5" fill="url(#paint3_linear)"/>
<path d="M146.394 268.961C146.177 267.878 146.895 267 148 267H223.377C224.481 267 225.553 267.878 225.771 268.961L236.417 321.901H157.04L146.394 268.961Z" fill="#C7C7C7"/>
<ellipse rx="4.85081" ry="5.5" transform="matrix(1 0 0.197144 0.980375 191.548 293.96)" fill="#75868F"/>
<path d="M374 294.75H392.375L391.062 321.75H375.312L374 294.75Z" fill="#22138D"/>
<path d="M374.338 292.279C374.176 292.976 374.797 293.625 375.625 293.625H390.798C391.627 293.625 392.248 292.976 392.085 292.279L391.298 288.904C391.175 288.379 390.637 288 390.011 288H376.413C375.787 288 375.249 288.379 375.126 288.904L374.338 292.279Z" fill="#3B4D56"/>
<rect x="373" y="292.5" width="21" height="2.25" rx="1.125" fill="#3C5665"/>
<circle cx="383.5" cy="307.25" r="3.5" fill="white"/>
<path d="M373.607 335.475C373.273 332.472 375.467 329.778 378.475 329.497V329.497C381.484 329.216 384.139 331.456 384.368 334.469L396.865 498.924C396.974 500.353 395.878 501.588 394.447 501.65V501.65C393.113 501.708 391.963 500.723 391.816 499.397L373.607 335.475Z" fill="#415A66"/>
<path d="M127.347 335.482C127.68 332.478 125.487 329.784 122.478 329.503V329.503C119.469 329.222 116.814 331.462 116.585 334.475L104.088 498.931C103.98 500.359 105.075 501.594 106.507 501.657V501.657C107.84 501.715 108.99 500.729 109.138 499.403L127.347 335.482Z" fill="#415A66"/>
<path fill-rule="evenodd" clip-rule="evenodd" d="M384.991 342H374.382L375.937 356H386.055L384.991 342ZM125.118 356L126.673 342H116.064L115 356H125.118Z" fill="#1F2D34"/>
<rect x="96" y="322" width="312" height="14" fill="#415A66"/>
<rect width="303" height="6" transform="matrix(1 0 0 -1 101 342)" fill="#384A54"/>
<path d="M291.382 210.168C294.182 210.168 295.54 208.768 295.54 207.13C295.54 203.532 289.842 204.778 289.842 202.972C289.842 202.356 290.36 201.852 291.704 201.852C292.572 201.852 293.51 202.104 294.42 202.622L295.12 200.9C294.21 200.326 292.95 200.032 291.718 200.032C288.932 200.032 287.588 201.418 287.588 203.084C287.588 206.724 293.286 205.464 293.286 207.298C293.286 207.9 292.74 208.348 291.396 208.348C290.22 208.348 288.988 207.928 288.162 207.326L287.392 209.034C288.26 209.706 289.828 210.168 291.382 210.168ZM301.503 210H303.771V202.048H306.907V200.2H298.367V202.048H301.503V210ZM310.647 210H312.915V200.2H310.647V210ZM317.761 210H324.943V208.152H320.029V200.2H317.761V210ZM328.73 210H335.912V208.152H330.998V200.2H328.73V210ZM358.826 200.2L356.544 207.144L354.304 200.2H352.204L349.894 207.088L347.682 200.2H345.33L348.55 210H350.972L353.198 203.364L355.354 210H357.79L360.996 200.2H358.826ZM369.405 210.168C372.485 210.168 374.767 208.026 374.767 205.1C374.767 202.174 372.485 200.032 369.405 200.032C366.311 200.032 364.043 202.188 364.043 205.1C364.043 208.012 366.311 210.168 369.405 210.168ZM369.405 208.236C367.655 208.236 366.339 206.962 366.339 205.1C366.339 203.238 367.655 201.964 369.405 201.964C371.155 201.964 372.471 203.238 372.471 205.1C372.471 206.962 371.155 208.236 369.405 208.236ZM387.672 210L385.474 206.85C386.748 206.304 387.49 205.226 387.49 203.756C387.49 201.558 385.852 200.2 383.234 200.2H378.992V210H381.26V207.27H383.234H383.346L385.236 210H387.672ZM385.194 203.756C385.194 204.82 384.494 205.464 383.108 205.464H381.26V202.048H383.108C384.494 202.048 385.194 202.678 385.194 203.756ZM398.513 210H401.159L396.861 204.568L400.921 200.2H398.401L394.061 204.778V200.2H391.807V210H394.061V207.522L395.377 206.15L398.513 210ZM404.69 210H406.958V200.2H404.69V210ZM418.552 200.2V206.15L413.68 200.2H411.804V210H414.044V204.05L418.93 210H420.792V200.2H418.552ZM432.253 207.816C431.679 208.124 431.105 208.236 430.489 208.236C428.613 208.236 427.311 206.934 427.311 205.1C427.311 203.238 428.613 201.964 430.517 201.964C431.511 201.964 432.337 202.314 433.051 203.07L434.507 201.726C433.555 200.62 432.127 200.032 430.405 200.032C427.283 200.032 425.015 202.146 425.015 205.1C425.015 208.054 427.283 210.168 430.363 210.168C431.763 210.168 433.247 209.734 434.325 208.922V204.946H432.253V207.816ZM439.76 210.112C440.516 210.112 441.118 209.538 441.118 208.74C441.118 207.928 440.516 207.396 439.76 207.396C439.004 207.396 438.402 207.928 438.402 208.74C438.402 209.538 439.004 210.112 439.76 210.112ZM445.944 210.112C446.7 210.112 447.302 209.538 447.302 208.74C447.302 207.928 446.7 207.396 445.944 207.396C445.188 207.396 444.586 207.928 444.586 208.74C444.586 209.538 445.188 210.112 445.944 210.112ZM452.128 210.112C452.884 210.112 453.486 209.538 453.486 208.74C453.486 207.928 452.884 207.396 452.128 207.396C451.372 207.396 450.77 207.928 450.77 208.74C450.77 209.538 451.372 210.112 452.128 210.112Z" fill="#ADADAD"/>
<path fill-rule="evenodd" clip-rule="evenodd" d="M48.437 422.5C21.637 398.5 28.2703 379.5 34.937 373H62.4989H63.4364H90.9983C97.6649 379.5 104.298 398.5 77.4983 422.5C71.2665 427.485 68.9644 432.326 68.74 436.5C68.9644 440.674 71.2665 445.515 77.4983 450.5C104.298 474.5 97.6649 493.5 90.9983 500H63.4364H62.4989H34.937C28.2703 493.5 21.637 474.5 48.437 450.5C54.6688 445.515 56.9708 440.674 57.1952 436.5C56.9708 432.326 54.6688 427.485 48.437 422.5Z" fill="white"/>
<path fill-rule="evenodd" clip-rule="evenodd" d="M29.6773 394.565C31.4155 402.509 36.7441 412.029 48.437 422.5C54.0831 427.017 56.5034 431.415 57.0754 435.306C59.1812 439.406 60.7676 444.601 61.5 451.641H64.5C65.0547 444.065 66.7171 438.639 69.0065 434.487C69.784 430.802 72.2448 426.703 77.4983 422.5C87.19 413.821 92.5094 405.796 95.036 398.779C92.7662 393.038 85.9483 385.892 73 395.14C68.6088 398.334 64.2972 395.87 59.2701 392.998C51.8314 388.747 42.826 383.601 29.6773 394.565ZM95.8198 476.674C92.0899 473.81 86.8189 471.588 82 474.706C78.1229 477.215 74.1418 474.626 70.0566 471.97C65.1856 468.803 60.1668 465.539 55 470.706C50.6792 475.027 45.324 474.176 40.5811 473.423C36.3313 472.747 32.573 472.15 30.4907 475.421C29.4406 478.699 29.0002 481.744 29 484.519C29 484.52 29 484.521 29 484.522C29.0004 491.485 31.7735 496.747 34.6439 499.706H91.2914C95.1588 495.719 98.8497 487.552 95.8198 476.674ZM63.5 461.641C64.3284 461.641 65 460.297 65 458.641C65 456.984 64.3284 455.641 63.5 455.641C62.6716 455.641 62 456.984 62 458.641C62 460.297 62.6716 461.641 63.5 461.641Z" fill="#22138D"/>
<path fill-rule="evenodd" clip-rule="evenodd" d="M34.5302 372H91.4051L91.6964 372.284C95.2406 375.74 98.683 382.412 97.7933 391.287C96.9028 400.17 91.6894 411.134 78.1654 423.245L78.1447 423.264L78.123 423.281C72.0745 428.12 69.9634 432.697 69.7416 436.5C69.9634 440.303 72.0745 444.88 78.123 449.719L78.1447 449.737L78.1654 449.755C91.6894 461.866 96.9028 472.83 97.7933 481.713C98.683 490.588 95.2406 497.26 91.6964 500.716L91.4051 501H34.5302L34.2389 500.716C30.6947 497.26 27.2523 490.588 28.142 481.713C29.0325 472.83 34.2459 461.866 47.7699 449.755L47.7906 449.737L47.8123 449.719C53.8609 444.88 55.9719 440.303 56.1937 436.5C55.9719 432.697 53.8609 428.12 47.8123 423.281L47.7906 423.264L47.7699 423.245C34.2459 411.134 29.0325 400.17 28.142 391.287C27.2523 382.412 30.6947 375.74 34.2389 372.284L34.5302 372ZM35.3522 374C32.3227 377.129 29.33 383.087 30.132 391.088C30.9578 399.326 35.8231 409.855 49.0836 421.737C55.454 426.84 57.9503 431.916 58.1938 436.446L58.1967 436.5L58.1938 436.554C57.9503 441.084 55.454 446.16 49.0836 451.263C35.8231 463.145 30.9578 473.674 30.132 481.912C29.33 489.913 32.3227 495.871 35.3522 499H90.5831C93.6126 495.871 96.6053 489.913 95.8033 481.912C94.9775 473.674 90.1122 463.145 76.8517 451.263C70.4813 446.16 67.9851 441.084 67.7415 436.554L67.7386 436.5L67.7415 436.446C67.9851 431.916 70.4813 426.84 76.8517 421.737C90.1122 409.855 94.9775 399.326 95.8033 391.088C96.6053 383.087 93.6126 377.129 90.5831 374H35.3522Z" fill="#E8DEE0"/>
<rect x="35" y="368" width="56" height="4" fill="#415A66"/>
<rect x="32" y="499" width="63" height="4" fill="#415A66"/>
<defs>
<linearGradient id="paint0_linear" x1="413" y1="504.999" x2="452.001" y2="504.984" gradientUnits="userSpaceOnUse">
<stop stop-color="#C7C7C7" stop-opacity="0"/>
<stop offset="0.473958" stop-color="#C7C7C7"/>
<stop offset="1" stop-color="#C7C7C7" stop-opacity="0"/>
</linearGradient>
<linearGradient id="paint1_linear" x1="85" y1="483" x2="419" y2="481" gradientUnits="userSpaceOnUse">
<stop stop-color="#C7C7C7" stop-opacity="0"/>
<stop offset="0.473958" stop-color="#C7C7C7"/>
<stop offset="1" stop-color="#C7C7C7" stop-opacity="0"/>
</linearGradient>
<linearGradient id="paint2_linear" x1="172.188" y1="240.677" x2="164.726" y2="234.655" gradientUnits="userSpaceOnUse">
<stop stop-color="#090047"/>
<stop offset="1" stop-color="#22138D"/>
</linearGradient>
<linearGradient id="paint3_linear" x1="233" y1="320" x2="279" y2="320" gradientUnits="userSpaceOnUse">
<stop stop-color="#BBBBBB"/>
<stop offset="1" stop-color="#C7C7C7"/>
</linearGradient>
</defs>
</svg>
