<svg width="164" height="236" viewBox="0 0 164 236" fill="none" xmlns="http://www.w3.org/2000/svg">
<path d="M12.41 172.303V181.87H31.6278V191.375H12.41V206.284H0.0957031V162.799H34.2399V172.303H12.41Z" fill="#DDAE52"/>
<path d="M43.8075 206.843C41.8173 206.843 40.1381 206.18 38.7698 204.855C37.4016 203.53 36.7175 201.852 36.7175 199.823C36.7175 197.752 37.3809 196.075 38.7076 194.791C40.0759 193.507 41.7759 192.866 43.8075 192.866C45.8806 192.866 47.5806 193.507 48.9074 194.791C50.2342 196.075 50.8976 197.752 50.8976 199.823C50.8976 201.852 50.2134 203.53 48.8452 204.855C47.5184 206.18 45.8392 206.843 43.8075 206.843Z" fill="#DDAE52"/>
<path d="M104.177 211.316C102.726 213.096 100.943 214.442 98.8283 215.353C96.7552 216.306 94.4748 216.782 91.9871 216.782C89.5822 216.782 87.4055 216.472 85.4567 215.85C83.508 215.229 81.5385 214.194 79.5484 212.744C77.5996 211.336 75.4021 209.348 72.9558 206.781C69.1828 206.16 65.8243 204.814 62.8805 202.743C59.9367 200.672 57.6355 198.063 55.977 194.916C54.36 191.768 53.5515 188.31 53.5515 184.541C53.5515 180.234 54.588 176.362 56.6612 172.925C58.7757 169.487 61.6574 166.795 65.306 164.849C68.9962 162.902 73.1424 161.929 77.7447 161.929C82.3471 161.929 86.4726 162.902 90.1212 164.849C93.8114 166.795 96.693 169.487 98.7661 172.925C100.881 176.362 101.938 180.234 101.938 184.541C101.938 189.428 100.59 193.756 97.8954 197.525C95.2418 201.252 91.6553 203.923 87.136 205.538C87.9652 206.449 88.7737 207.091 89.5615 207.464C90.3907 207.837 91.2822 208.023 92.2358 208.023C94.6821 208.023 96.8796 207.009 98.8283 204.979L104.177 211.316ZM65.9902 184.541C65.9902 186.985 66.5085 189.159 67.545 191.064C68.5816 192.928 69.9913 194.377 71.7742 195.413C73.557 196.448 75.5472 196.966 77.7447 196.966C79.9422 196.966 81.9324 196.448 83.7153 195.413C85.4982 194.377 86.9079 192.928 87.9445 191.064C88.981 189.159 89.4993 186.985 89.4993 184.541C89.4993 182.098 88.981 179.944 87.9445 178.081C86.9079 176.176 85.4982 174.705 83.7153 173.67C81.9324 172.635 79.9422 172.117 77.7447 172.117C75.5472 172.117 73.557 172.635 71.7742 173.67C69.9913 174.705 68.5816 176.176 67.545 178.081C66.5085 179.944 65.9902 182.098 65.9902 184.541Z" fill="#DDAE52"/>
<path d="M111.589 206.843C109.598 206.843 107.919 206.18 106.551 204.855C105.183 203.53 104.499 201.852 104.499 199.823C104.499 197.752 105.162 196.075 106.489 194.791C107.857 193.507 109.557 192.866 111.589 192.866C113.662 192.866 115.362 193.507 116.689 194.791C118.015 196.075 118.679 197.752 118.679 199.823C118.679 201.852 117.995 203.53 116.626 204.855C115.3 206.18 113.62 206.843 111.589 206.843Z" fill="#DDAE52"/>
<path d="M145.277 207.153C140.716 207.153 136.612 206.201 132.963 204.296C129.356 202.349 126.515 199.657 124.442 196.22C122.369 192.783 121.333 188.89 121.333 184.541C121.333 180.193 122.369 176.3 124.442 172.863C126.515 169.425 129.356 166.754 132.963 164.849C136.612 162.902 140.716 161.929 145.277 161.929C149.258 161.929 152.844 162.633 156.037 164.041C159.229 165.449 161.883 167.479 163.997 170.129L156.161 177.211C153.342 173.815 149.921 172.117 145.899 172.117C143.536 172.117 141.421 172.635 139.555 173.67C137.731 174.705 136.301 176.176 135.264 178.081C134.269 179.944 133.771 182.098 133.771 184.541C133.771 186.985 134.269 189.159 135.264 191.064C136.301 192.928 137.731 194.377 139.555 195.413C141.421 196.448 143.536 196.966 145.899 196.966C149.921 196.966 153.342 195.268 156.161 191.872L163.997 198.953C161.883 201.604 159.229 203.633 156.037 205.041C152.844 206.449 149.258 207.153 145.277 207.153Z" fill="#DDAE52"/>
<path d="M2.44955 225.247V227.954H7.15725V229.856H2.44955V233.587H0.0957031V223.345H7.78204V225.247H2.44955Z" fill="#393939"/>
<path d="M15.6482 231.392H10.9259L10.0251 233.587H7.61312L12.1465 223.345H14.4713L19.0191 233.587H16.549L15.6482 231.392ZM14.9071 229.593L13.2943 225.671L11.6815 229.593H14.9071Z" fill="#393939"/>
<path d="M22.1616 233.763C21.4738 233.763 20.8393 233.636 20.2581 233.382C19.6866 233.119 19.2168 232.748 18.8487 232.27L20.1564 230.69C20.7086 231.441 21.3382 231.817 22.0453 231.817C23.0043 231.817 23.4838 231.251 23.4838 230.119V225.247H19.9094V223.345H25.8231V229.988C25.8231 231.246 25.5131 232.192 24.8932 232.826C24.2732 233.451 23.3627 233.763 22.1616 233.763Z" fill="#393939"/>
<path d="M34.6285 233.587L32.6669 230.734H32.5507H30.502V233.587H28.1481V223.345H32.5507C33.4515 223.345 34.2313 223.496 34.89 223.798C35.5584 224.101 36.0718 224.53 36.4302 225.086C36.7886 225.642 36.9678 226.3 36.9678 227.061C36.9678 227.822 36.7837 228.48 36.4156 229.036C36.0572 229.583 35.5438 230.002 34.8755 230.295L37.1567 233.587H34.6285ZM34.5849 227.061C34.5849 226.486 34.4008 226.047 34.0327 225.744C33.6646 225.432 33.127 225.276 32.4199 225.276H30.502V228.846H32.4199C33.127 228.846 33.6646 228.69 34.0327 228.378C34.4008 228.066 34.5849 227.627 34.5849 227.061Z" fill="#393939"/>
<path d="M53.9468 234.685C53.6174 235.094 53.2155 235.406 52.7408 235.621C52.2759 235.836 51.7625 235.943 51.2006 235.943C50.4451 235.943 49.7622 235.777 49.1519 235.445C48.5417 235.124 47.8442 234.548 47.0596 233.719C46.1394 233.602 45.316 233.304 44.5895 232.826C43.8727 232.348 43.3109 231.734 42.904 230.983C42.5069 230.222 42.3083 229.383 42.3083 228.466C42.3083 227.461 42.5456 226.559 43.0203 225.759C43.5046 224.949 44.1682 224.315 45.0109 223.857C45.8633 223.398 46.8174 223.169 47.8733 223.169C48.9291 223.169 49.8784 223.398 50.7211 223.857C51.5639 224.315 52.2274 224.949 52.7118 225.759C53.1961 226.559 53.4382 227.461 53.4382 228.466C53.4382 229.656 53.1041 230.7 52.4357 231.597C51.777 232.495 50.9004 233.119 49.8058 233.47C50.0479 233.724 50.2804 233.904 50.5032 234.011C50.7357 234.129 50.9827 234.187 51.2442 234.187C51.8739 234.187 52.426 233.933 52.9006 233.426L53.9468 234.685ZM44.6912 228.466C44.6912 229.1 44.8268 229.666 45.0981 230.163C45.379 230.661 45.7616 231.051 46.2459 231.334C46.7303 231.607 47.2727 231.743 47.8733 231.743C48.4739 231.743 49.0163 231.607 49.5006 231.334C49.985 231.051 50.3627 230.661 50.634 230.163C50.9149 229.666 51.0553 229.1 51.0553 228.466C51.0553 227.832 50.9149 227.266 50.634 226.768C50.3627 226.271 49.985 225.886 49.5006 225.613C49.0163 225.33 48.4739 225.188 47.8733 225.188C47.2727 225.188 46.7303 225.33 46.2459 225.613C45.7616 225.886 45.379 226.271 45.0981 226.768C44.8268 227.266 44.6912 227.832 44.6912 228.466Z" fill="#393939"/>
<path d="M59.7261 233.763C58.2731 233.763 57.1397 233.358 56.3261 232.548C55.5221 231.739 55.1201 230.583 55.1201 229.08V223.345H57.4739V228.993C57.4739 230.827 58.2295 231.743 59.7406 231.743C60.4768 231.743 61.0386 231.524 61.4261 231.085C61.8135 230.636 62.0073 229.939 62.0073 228.993V223.345H64.3321V229.08C64.3321 230.583 63.9252 231.739 63.1115 232.548C62.3076 233.358 61.1791 233.763 59.7261 233.763Z" fill="#393939"/>
<path d="M73.1384 233.587L71.1769 230.734H71.0607H69.0119V233.587H66.6581V223.345H71.0607C71.9615 223.345 72.7413 223.496 73.4 223.798C74.0684 224.101 74.5817 224.53 74.9402 225.086C75.2986 225.642 75.4778 226.3 75.4778 227.061C75.4778 227.822 75.2937 228.48 74.9256 229.036C74.5672 229.583 74.0538 230.002 73.3855 230.295L75.6666 233.587H73.1384ZM73.0949 227.061C73.0949 226.486 72.9108 226.047 72.5427 225.744C72.1746 225.432 71.637 225.276 70.9299 225.276H69.0119V228.846H70.9299C71.637 228.846 72.1746 228.69 72.5427 228.378C72.9108 228.066 73.0949 227.627 73.0949 227.061Z" fill="#393939"/>
<path d="M84.041 231.392H79.3188L78.4179 233.587H76.006L80.5393 223.345H82.8641L87.4119 233.587H84.9419L84.041 231.392ZM83.3 229.593L81.6871 225.671L80.0743 229.593H83.3Z" fill="#393939"/>
<path d="M97.7954 223.345V233.587H95.8629L90.792 227.368V233.587H88.4672V223.345H90.4142L95.4706 229.563V223.345H97.7954Z" fill="#393939"/>
<path d="M109.184 233.763C108.148 233.763 107.208 233.538 106.365 233.09C105.532 232.631 104.874 232.002 104.389 231.202C103.915 230.392 103.677 229.48 103.677 228.466C103.677 227.451 103.915 226.544 104.389 225.744C104.874 224.935 105.532 224.305 106.365 223.857C107.208 223.398 108.153 223.169 109.199 223.169C110.08 223.169 110.875 223.325 111.582 223.637C112.298 223.949 112.899 224.398 113.383 224.983L111.872 226.388C111.185 225.588 110.332 225.188 109.315 225.188C108.685 225.188 108.124 225.33 107.63 225.613C107.136 225.886 106.748 226.271 106.467 226.768C106.196 227.266 106.06 227.832 106.06 228.466C106.06 229.1 106.196 229.666 106.467 230.163C106.748 230.661 107.136 231.051 107.63 231.334C108.124 231.607 108.685 231.743 109.315 231.743C110.332 231.743 111.185 231.339 111.872 230.529L113.383 231.934C112.899 232.529 112.298 232.982 111.582 233.294C110.865 233.607 110.066 233.763 109.184 233.763Z" fill="#393939"/>
<path d="M122.848 231.685V233.587H114.973V223.345H122.659V225.247H117.312V227.471H122.034V229.315H117.312V231.685H122.848Z" fill="#393939"/>
<path d="M134.049 223.345V233.587H132.117L127.046 227.368V233.587H124.721V223.345H126.668L131.724 229.563V223.345H134.049Z" fill="#393939"/>
<path d="M138.563 225.276H135.308V223.345H144.171V225.276H140.916V233.587H138.563V225.276Z" fill="#393939"/>
<path d="M151.918 233.587L149.956 230.734H149.84H147.791V233.587H145.438V223.345H149.84C150.741 223.345 151.521 223.496 152.179 223.798C152.848 224.101 153.361 224.53 153.72 225.086C154.078 225.642 154.257 226.3 154.257 227.061C154.257 227.822 154.073 228.48 153.705 229.036C153.347 229.583 152.833 230.002 152.165 230.295L154.446 233.587H151.918ZM151.874 227.061C151.874 226.486 151.69 226.047 151.322 225.744C150.954 225.432 150.416 225.276 149.709 225.276H147.791V228.846H149.709C150.416 228.846 150.954 228.69 151.322 228.378C151.69 228.066 151.874 227.627 151.874 227.061Z" fill="#393939"/>
<path d="M163.997 231.685V233.587H156.122V223.345H163.808V225.247H158.461V227.471H163.184V229.315H158.461V231.685H163.997Z" fill="#393939"/>
<path fill-rule="evenodd" clip-rule="evenodd" d="M44.7997 86.0366V94.9596C43.2894 94.632 39.6733 96.5967 37.291 98.3199L81.8911 121.225C81.9317 121.281 81.9565 121.307 81.9565 121.307L126.624 98.3667C124.242 96.6435 120.626 94.6789 119.116 95.0065V86.0834C116.906 92.0474 113.146 95.4282 109.143 95.7109C90.5085 97.3994 83.7077 106.44 81.9639 112.965C81.9623 112.959 81.9606 112.953 81.9589 112.947C80.2272 106.419 73.4336 97.355 54.7723 95.6641C50.7698 95.3814 47.0091 92.0005 44.7997 86.0366Z" fill="#DDAE52"/>
<path fill-rule="evenodd" clip-rule="evenodd" d="M29.209 115.195C36.6353 119.107 52.0123 127.184 64.4355 133.641C67.1455 130.886 71.3181 127.274 75.9578 124.809C74.5936 124.108 73.1468 123.365 71.6409 122.591L71.6406 122.591C62.0772 117.679 50.13 111.543 41.8072 107.17L29.209 115.195ZM70.1267 136.591C70.1047 136.58 70.0827 136.569 70.0606 136.557C71.7332 134.993 73.59 133.519 75.3742 132.226C78.0424 130.26 81.1309 128.318 84.67 126.497C86.902 125.348 89.4843 124.022 92.2687 122.591C101.832 117.679 113.78 111.543 122.103 107.17L134.701 115.195C126.087 119.733 106.774 129.875 93.7834 136.591C98.2209 140.782 100.816 144.75 101.869 147.531L103.47 152.189H89.5724C89.2644 151.376 87.169 147.849 81.955 143.737C76.7411 147.849 74.6457 151.376 74.3377 152.189H60.4402L62.0406 147.531C63.0941 144.75 65.6892 140.782 70.1267 136.591Z" fill="#393939"/>
<path fill-rule="evenodd" clip-rule="evenodd" d="M75.6122 2.84623C14.7526 36.6425 -0.301302 92.0134 0.00453776 116.54V152.173L3.60311 152.161H74.4852V139.012H13.1542V116.454L13.1537 116.411C12.8839 96.0478 25.9064 45.4898 81.9962 14.3423V0L75.6122 2.84623ZM163.993 125.036L150.844 122.037V131.814C154.893 130.496 159.265 129.332 163.993 128.39V125.036ZM163.993 135.903C154.857 137.84 145.238 140.912 136.276 145.63C132.087 147.836 128.45 150.041 125.249 152.161H160.395L163.993 152.173V152.161H164V139.012H163.993V135.903ZM113.38 152.161H89.6102V145.068C90.1321 143.053 90.9209 140.992 91.8447 139.012H133.803C125.887 143.174 119.67 147.642 114.559 151.315C114.159 151.602 113.766 151.884 113.38 152.161ZM90.7044 139.012C90.3297 139.632 89.9635 140.265 89.6102 140.908V139.012H90.7044ZM163.061 104.063C163.465 106.79 163.729 109.351 163.871 111.717H150.696C149.084 89.0775 134.172 43.3135 82.0016 14.3423V0L88.3856 2.84623C129.069 25.4381 149.283 57.6708 158.123 83.8862C157.374 84.4071 156.741 85.1138 156.266 86.0058C152.705 92.6853 151.232 98.8246 156.266 102.238C158.002 103.416 160.481 103.86 163.061 104.063ZM160.032 90.0562C160.651 92.2545 161.188 94.3972 161.65 96.4739C159.965 96.2793 158.438 95.8827 157.494 95.1902C155.283 93.5694 157.936 91.3102 158.967 90.4998C159.226 90.2961 159.597 90.1498 160.032 90.0562ZM77.936 57.658L75.0314 59.1806L98.7863 76.6876L104.206 73.8624L80.4386 56.346L80.4356 56.3476L80.4382 56.3496L77.936 57.658ZM66.4866 63.8034L68.8771 62.5502L71.8935 60.973L71.8903 60.9707L71.8939 60.9688L95.6616 78.4852L90.2416 81.3104L66.4866 63.8034ZM74.5798 73.9188L69.1519 76.7382L81.7414 86.0165L87.1614 83.1912L74.5798 73.9188ZM151.058 77.354C150.664 76.9812 150.042 76.9985 149.669 77.3926L145.79 81.4929C145.418 81.8871 145.435 82.5088 145.829 82.8816L149.929 86.7603C150.323 87.1331 150.945 87.1158 151.318 86.7217L155.197 82.6214C155.57 82.2272 155.552 81.6055 155.158 81.2327L151.058 77.354Z" fill="#393939"/>
</svg>
