<svg width="134" height="48" viewBox="0 0 134 48" fill="none" xmlns="http://www.w3.org/2000/svg">
<path d="M65.6483 19.0923V23.406H74.3138V27.6917H65.6483V34.4143H60.0957V14.8066H75.4917V19.0923H65.6483Z" fill="#393939"/>
<path d="M79.8058 34.6664C78.9084 34.6664 78.1512 34.3676 77.5342 33.7701C76.9173 33.1725 76.6088 32.4162 76.6088 31.5012C76.6088 30.5675 76.9079 29.8112 77.5062 29.2323C78.1232 28.6534 78.8897 28.3639 79.8058 28.3639C80.7406 28.3639 81.5071 28.6534 82.1053 29.2323C82.7036 29.8112 83.0027 30.5675 83.0027 31.5012C83.0027 32.4162 82.6943 33.1725 82.0773 33.7701C81.479 34.3676 80.7219 34.6664 79.8058 34.6664Z" fill="#393939"/>
<path d="M107.027 36.6832C106.373 37.4862 105.569 38.0931 104.615 38.5039C103.68 38.9334 102.652 39.1482 101.53 39.1482C100.446 39.1482 99.4645 39.0081 98.5858 38.728C97.7071 38.4479 96.819 37.9811 95.9217 37.3275C95.043 36.6926 94.0521 35.7962 92.949 34.6384C91.2477 34.3583 89.7334 33.7514 88.406 32.8177C87.0786 31.884 86.041 30.7075 85.2931 29.2883C84.564 27.8691 84.1994 26.3098 84.1994 24.6105C84.1994 22.6684 84.6668 20.9223 85.6016 19.3724C86.5551 17.8224 87.8544 16.6086 89.4997 15.7309C91.1636 14.8533 93.0332 14.4144 95.1084 14.4144C97.1836 14.4144 99.0438 14.8533 100.689 15.7309C102.353 16.6086 103.652 17.8224 104.587 19.3724C105.541 20.9223 106.017 22.6684 106.017 24.6105C106.017 26.814 105.41 28.7654 104.195 30.4648C102.998 32.1454 101.381 33.3499 99.343 34.0782C99.7169 34.489 100.081 34.7785 100.437 34.9465C100.811 35.1146 101.213 35.1986 101.643 35.1986C102.746 35.1986 103.736 34.7411 104.615 33.8261L107.027 36.6832ZM89.8081 24.6105C89.8081 25.7122 90.0418 26.6926 90.5092 27.5516C90.9766 28.3919 91.6123 29.0455 92.4162 29.5124C93.2201 29.9792 94.1175 30.2127 95.1084 30.2127C96.0993 30.2127 96.9967 29.9792 97.8006 29.5124C98.6045 29.0455 99.2402 28.3919 99.7075 27.5516C100.175 26.6926 100.409 25.7122 100.409 24.6105C100.409 23.5087 100.175 22.5376 99.7075 21.6973C99.2402 20.8383 98.6045 20.1754 97.8006 19.7085C96.9967 19.2417 96.0993 19.0082 95.1084 19.0082C94.1175 19.0082 93.2201 19.2417 92.4162 19.7085C91.6123 20.1754 90.9766 20.8383 90.5092 21.6973C90.0418 22.5376 89.8081 23.5087 89.8081 24.6105Z" fill="#393939"/>
<path d="M110.369 34.6664C109.472 34.6664 108.714 34.3676 108.097 33.7701C107.48 33.1725 107.172 32.4162 107.172 31.5012C107.172 30.5675 107.471 29.8112 108.069 29.2323C108.686 28.6534 109.453 28.3639 110.369 28.3639C111.304 28.3639 112.07 28.6534 112.669 29.2323C113.267 29.8112 113.566 30.5675 113.566 31.5012C113.566 32.4162 113.257 33.1725 112.64 33.7701C112.042 34.3676 111.285 34.6664 110.369 34.6664Z" fill="#393939"/>
<path d="M125.559 34.8065C123.503 34.8065 121.652 34.377 120.007 33.518C118.38 32.6403 117.1 31.4265 116.165 29.8765C115.23 28.3266 114.763 26.5712 114.763 24.6105C114.763 22.6497 115.23 20.8943 116.165 19.3444C117.1 17.7944 118.38 16.59 120.007 15.7309C121.652 14.8533 123.503 14.4144 125.559 14.4144C127.354 14.4144 128.971 14.7319 130.411 15.3668C131.851 16.0017 133.047 16.9167 134.001 18.1119L130.467 21.3051C129.196 19.7739 127.653 19.0082 125.84 19.0082C124.774 19.0082 123.821 19.2417 122.979 19.7085C122.157 20.1754 121.512 20.8383 121.044 21.6973C120.596 22.5376 120.371 23.5087 120.371 24.6105C120.371 25.7122 120.596 26.6926 121.044 27.5516C121.512 28.3919 122.157 29.0455 122.979 29.5124C123.821 29.9792 124.774 30.2127 125.84 30.2127C127.653 30.2127 129.196 29.447 130.467 27.9158L134.001 31.109C133.047 32.3042 131.851 33.2192 130.411 33.8541C128.971 34.489 127.354 34.8065 125.559 34.8065Z" fill="#393939"/>
<path d="M61.1571 42.965V44.1856H63.2798V45.0433H61.1571V46.7257H60.0957V42.1072H63.5615V42.965H61.1571Z" fill="#393939"/>
<path d="M67.1085 45.7361H64.9792L64.573 46.7257H63.4854L65.5295 42.1072H66.5778L68.6284 46.7257H67.5147L67.1085 45.7361ZM66.7743 44.9245L66.0471 43.1563L65.3199 44.9245H66.7743Z" fill="#393939"/>
<path d="M70.0454 46.8049C69.7353 46.8049 69.4492 46.7477 69.1871 46.6334C68.9294 46.5146 68.7176 46.3475 68.5516 46.1319L69.1413 45.4194C69.3902 45.7581 69.6741 45.9274 69.993 45.9274C70.4254 45.9274 70.6416 45.6723 70.6416 45.1621V42.965H69.0299V42.1072H71.6964V45.1027C71.6964 45.6701 71.5567 46.0967 71.2771 46.3827C70.9976 46.6642 70.587 46.8049 70.0454 46.8049Z" fill="#393939"/>
<path d="M75.6669 46.7257L74.7824 45.4392H74.73H73.8062V46.7257H72.7448V42.1072H74.73C75.1362 42.1072 75.4878 42.1754 75.7848 42.3118C76.0862 42.4481 76.3177 42.6417 76.4793 42.8924C76.6409 43.1431 76.7217 43.44 76.7217 43.7831C76.7217 44.1262 76.6387 44.4231 76.4727 44.6738C76.3111 44.9201 76.0796 45.1093 75.7782 45.2412L76.8068 46.7257H75.6669ZM75.6472 43.7831C75.6472 43.5236 75.5642 43.3257 75.3982 43.1893C75.2323 43.0485 74.9898 42.9782 74.671 42.9782H73.8062V44.588H74.671C74.9898 44.588 75.2323 44.5177 75.3982 44.3769C75.5642 44.2362 75.6472 44.0382 75.6472 43.7831Z" fill="#393939"/>
<path d="M84.3777 47.2206C84.2292 47.4053 84.0479 47.5461 83.8339 47.6428C83.6242 47.7396 83.3927 47.788 83.1394 47.788C82.7987 47.788 82.4908 47.7132 82.2156 47.5637C81.9404 47.4185 81.626 47.159 81.2722 46.7851C80.8572 46.7323 80.486 46.5982 80.1584 46.3827C79.8352 46.1671 79.5818 45.89 79.3984 45.5513C79.2193 45.2082 79.1298 44.83 79.1298 44.4165C79.1298 43.9634 79.2368 43.5566 79.4508 43.1959C79.6692 42.8308 79.9684 42.5449 80.3484 42.3382C80.7328 42.1314 81.163 42.0281 81.6391 42.0281C82.1152 42.0281 82.5432 42.1314 82.9232 42.3382C83.3032 42.5449 83.6024 42.8308 83.8208 43.1959C84.0392 43.5566 84.1484 43.9634 84.1484 44.4165C84.1484 44.9531 83.9977 45.4238 83.6963 45.8284C83.3993 46.2331 83.004 46.5146 82.5104 46.673C82.6196 46.7873 82.7245 46.8687 82.8249 46.9171C82.9297 46.9699 83.0411 46.9963 83.1591 46.9963C83.443 46.9963 83.6919 46.8819 83.9059 46.6532L84.3777 47.2206ZM80.2042 44.4165C80.2042 44.7024 80.2654 44.9575 80.3877 45.1818C80.5144 45.4062 80.6869 45.5821 80.9053 45.7097C81.1237 45.8328 81.3683 45.8944 81.6391 45.8944C81.9099 45.8944 82.1545 45.8328 82.3729 45.7097C82.5912 45.5821 82.7616 45.4062 82.8839 45.1818C83.0106 44.9575 83.0739 44.7024 83.0739 44.4165C83.0739 44.1306 83.0106 43.8755 82.8839 43.6511C82.7616 43.4268 82.5912 43.2531 82.3729 43.1299C82.1545 43.0024 81.9099 42.9386 81.6391 42.9386C81.3683 42.9386 81.1237 43.0024 80.9053 43.1299C80.6869 43.2531 80.5144 43.4268 80.3877 43.6511C80.2654 43.8755 80.2042 44.1306 80.2042 44.4165Z" fill="#393939"/>
<path d="M86.9836 46.8049C86.3284 46.8049 85.8174 46.6224 85.4505 46.2573C85.088 45.8922 84.9067 45.371 84.9067 44.6936V42.1072H85.9681V44.654C85.9681 45.4809 86.3088 45.8944 86.9902 45.8944C87.3221 45.8944 87.5754 45.7954 87.7501 45.5975C87.9249 45.3952 88.0122 45.0807 88.0122 44.654V42.1072H89.0605V44.6936C89.0605 45.371 88.877 45.8922 88.5101 46.2573C88.1476 46.6224 87.6388 46.8049 86.9836 46.8049Z" fill="#393939"/>
<path d="M93.0314 46.7257L92.1469 45.4392H92.0945H91.1707V46.7257H90.1093V42.1072H92.0945C92.5007 42.1072 92.8523 42.1754 93.1493 42.3118C93.4507 42.4481 93.6822 42.6417 93.8438 42.8924C94.0054 43.1431 94.0862 43.44 94.0862 43.7831C94.0862 44.1262 94.0032 44.4231 93.8372 44.6738C93.6756 44.9201 93.4441 45.1093 93.1427 45.2412L94.1714 46.7257H93.0314ZM93.0117 43.7831C93.0117 43.5236 92.9287 43.3257 92.7627 43.1893C92.5968 43.0485 92.3544 42.9782 92.0355 42.9782H91.1707V44.588H92.0355C92.3544 44.588 92.5968 44.5177 92.7627 44.3769C92.9287 44.2362 93.0117 44.0382 93.0117 43.7831Z" fill="#393939"/>
<path d="M97.9474 45.7361H95.8181L95.4119 46.7257H94.3244L96.3685 42.1072H97.4167L99.4674 46.7257H98.3536L97.9474 45.7361ZM97.6133 44.9245L96.8861 43.1563L96.1588 44.9245H97.6133Z" fill="#393939"/>
<path d="M104.149 42.1072V46.7257H103.278L100.992 43.9217V46.7257H99.9432V42.1072H100.821L103.101 44.9113V42.1072H104.149Z" fill="#393939"/>
<path d="M109.285 46.8049C108.817 46.8049 108.394 46.7037 108.014 46.5014C107.638 46.2947 107.341 46.011 107.123 45.6503C106.909 45.2852 106.802 44.8739 106.802 44.4165C106.802 43.959 106.909 43.55 107.123 43.1893C107.341 42.8242 107.638 42.5405 108.014 42.3382C108.394 42.1314 108.82 42.0281 109.291 42.0281C109.689 42.0281 110.047 42.0985 110.366 42.2392C110.689 42.38 110.96 42.5823 111.178 42.8462L110.497 43.4796C110.187 43.1189 109.802 42.9386 109.344 42.9386C109.06 42.9386 108.806 43.0024 108.584 43.1299C108.361 43.2531 108.186 43.4268 108.06 43.6511C107.937 43.8755 107.876 44.1306 107.876 44.4165C107.876 44.7024 107.937 44.9575 108.06 45.1818C108.186 45.4062 108.361 45.5821 108.584 45.7097C108.806 45.8328 109.06 45.8944 109.344 45.8944C109.802 45.8944 110.187 45.7119 110.497 45.3468L111.178 45.9802C110.96 46.2485 110.689 46.453 110.366 46.5938C110.043 46.7345 109.682 46.8049 109.285 46.8049Z" fill="#393939"/>
<path d="M115.446 45.868V46.7257H111.895V42.1072H115.361V42.965H112.95V43.9678H115.079V44.7992H112.95V45.868H115.446Z" fill="#393939"/>
<path d="M120.497 42.1072V46.7257H119.625L117.339 43.9217V46.7257H116.29V42.1072H117.168L119.448 44.9113V42.1072H120.497Z" fill="#393939"/>
<path d="M122.532 42.9782H121.064V42.1072H125.061V42.9782H123.593V46.7257H122.532V42.9782Z" fill="#393939"/>
<path d="M128.554 46.7257L127.669 45.4392H127.617H126.693V46.7257H125.632V42.1072H127.617C128.023 42.1072 128.375 42.1754 128.672 42.3118C128.973 42.4481 129.205 42.6417 129.366 42.8924C129.528 43.1431 129.609 43.44 129.609 43.7831C129.609 44.1262 129.526 44.4231 129.36 44.6738C129.198 44.9201 128.967 45.1093 128.665 45.2412L129.694 46.7257H128.554ZM128.534 43.7831C128.534 43.5236 128.451 43.3257 128.285 43.1893C128.119 43.0485 127.877 42.9782 127.558 42.9782H126.693V44.588H127.558C127.877 44.588 128.119 44.5177 128.285 44.3769C128.451 44.2362 128.534 44.0382 128.534 43.7831Z" fill="#393939"/>
<path d="M134.001 45.868V46.7257H130.45V42.1072H133.915V42.965H131.504V43.9678H133.634V44.7992H131.504V45.868H134.001Z" fill="#393939"/>
<path fill-rule="evenodd" clip-rule="evenodd" d="M14.0667 27.0149V29.8167C13.5924 29.7138 12.457 30.3307 11.709 30.8718L25.7134 38.064C25.7261 38.0816 25.7338 38.0896 25.7338 38.0896L39.7593 30.8865C39.0112 30.3454 37.8758 29.7285 37.4016 29.8314V27.0296C36.7079 28.9023 35.527 29.9638 34.2703 30.0526C28.4188 30.5828 26.2835 33.4217 25.7361 35.4707C25.7355 35.4686 25.735 35.4665 25.7344 35.4644C25.1906 33.4147 23.0575 30.5688 17.198 30.0378C15.9412 29.9491 14.7604 28.8875 14.0667 27.0149Z" fill="#DDAE52"/>
<path fill-rule="evenodd" clip-rule="evenodd" d="M9.17188 36.1702C11.5035 37.3986 16.3313 39.9344 20.232 41.9617C21.0831 41.0965 22.3933 39.9626 23.8501 39.1887L22.4951 38.4926L22.4951 38.4926C19.4922 36.9502 15.7409 35.0234 13.1276 33.6506L9.17188 36.1702ZM22.0193 42.8884C22.0123 42.8848 22.0053 42.8812 21.9983 42.8775C22.5311 42.3794 23.1234 41.9101 23.691 41.5C24.5233 40.8889 25.485 40.2854 26.5855 39.719C27.2864 39.3582 28.0973 38.9417 28.9717 38.4926C31.9745 36.9503 35.7259 35.0235 38.3392 33.6506L42.295 36.1702C39.5902 37.5952 33.5265 40.7795 29.4476 42.8884C30.841 44.2043 31.656 45.4503 31.9868 46.3236L32.4893 47.7862H28.1256C28.0289 47.5308 27.3708 46.4234 25.7334 45.1321C24.096 46.4234 23.438 47.5308 23.3413 47.7862H18.9776L19.4801 46.3236C19.8109 45.4503 20.6258 44.2043 22.0193 42.8884Z" fill="#393939"/>
<path fill-rule="evenodd" clip-rule="evenodd" d="M23.7417 0.893696C4.63221 11.5055 -0.0946068 28.8916 0.00142483 36.5929V47.7813L1.17379 47.7775H23.387V43.6486H4.13034V36.5658L4.13016 36.5522C4.04545 30.1584 8.13442 14.2835 25.7462 4.50339V0L23.7417 0.893696ZM51.4918 39.2601L47.3629 38.3187V41.3889C48.6345 40.9749 50.007 40.6095 51.4918 40.3138V39.2601ZM51.4918 42.6728C48.6233 43.2809 45.6032 44.2456 42.7896 45.7269C41.4744 46.4193 40.3323 47.1118 39.3272 47.7775H50.3194L51.4918 47.7813V47.7775H51.4931V43.6486H51.4918V42.6728ZM35.6004 47.7775H28.1353V45.5563C28.2991 44.9216 28.5474 44.2725 28.8384 43.6486H42.0132C39.5277 44.9555 37.5754 46.3584 35.9706 47.5117C35.8451 47.6019 35.7218 47.6905 35.6004 47.7775ZM28.4804 43.6486C28.3622 43.8442 28.2467 44.044 28.1353 44.247V43.6486H28.4804ZM51.1992 32.675C51.326 33.5311 51.4088 34.3355 51.4533 35.0784H47.3165C46.8103 27.9697 42.1282 13.6001 25.747 4.50339V0L27.7515 0.893696C40.5259 7.9875 46.8731 18.1086 49.6489 26.3401C49.4137 26.5036 49.2153 26.7254 49.0662 27.0052C47.9481 29.1025 47.4855 31.0302 49.0662 32.102C49.6113 32.4716 50.3893 32.6111 51.1992 32.675ZM50.248 28.2772C50.4422 28.9673 50.6109 29.64 50.756 30.292C50.2273 30.2309 49.7481 30.1064 49.4517 29.889C48.7577 29.3801 49.5905 28.6707 49.9143 28.4163C49.9956 28.3524 50.1118 28.3065 50.248 28.2772ZM24.3178 18.1842L23.5585 18.5823L31.0174 24.0793L32.7193 23.1922L25.2564 17.6922L25.255 17.6929L25.256 17.6936L24.3178 18.1842ZM20.8751 20.0339L21.6697 19.6174L22.5726 19.1452L22.5716 19.1445L22.573 19.1438L30.0358 24.6439L28.334 25.531L20.8751 20.0339ZM23.4152 23.2098L23.4152 23.2098L21.7109 24.0951L25.6639 27.0084L27.3658 26.1213L23.4152 23.2098ZM47.4319 24.2887C47.3081 24.1717 47.1129 24.1771 46.9959 24.3008L45.778 25.5883C45.6609 25.7121 45.6663 25.9073 45.7901 26.0243L47.0776 27.2422C47.2013 27.3593 47.3965 27.3539 47.5136 27.2301L48.7315 25.9426C48.8485 25.8189 48.8431 25.6237 48.7194 25.5066L47.4319 24.2887Z" fill="#393939"/>
</svg>
