<svg width="1440" height="900" viewBox="0 0 1440 900" fill="none" xmlns="http://www.w3.org/2000/svg">
<mask id="mask0" mask-type="alpha" maskUnits="userSpaceOnUse" x="0" y="0" width="1440" height="900">
<rect width="1440" height="900" fill="#C4C4C4"/>
</mask>
<g mask="url(#mask0)">
<g opacity="0.08">
<mask id="mask1" mask-type="alpha" maskUnits="userSpaceOnUse" x="908" y="-50" width="626" height="837">
<rect x="908" y="-50" width="625.25" height="836.024" fill="#C4C4C4"/>
</mask>
<g mask="url(#mask1)">
<path d="M1305.99 -51.0395C1310.94 -53.8976 1317.04 -53.8976 1321.99 -51.0395L1646.56 136.351C1651.51 139.209 1654.56 144.491 1654.56 150.208V524.989C1654.56 530.705 1651.51 535.987 1646.56 538.846L1321.99 726.236C1317.04 729.095 1310.94 729.095 1305.99 726.236L981.417 538.846C976.466 535.987 973.417 530.705 973.417 524.989V150.208C973.417 144.491 976.466 139.209 981.417 136.351L1305.99 -51.0395Z" fill="#D2BCBC"/>
<path d="M1285.74 -31.6547C1290.11 -34.08 1295.43 -34.08 1299.8 -31.6547L1655 165.297C1659.61 167.852 1662.47 172.708 1662.47 177.978V570.778C1662.47 576.048 1659.61 580.903 1655 583.459L1299.8 780.41C1295.43 782.836 1290.11 782.836 1285.74 780.41L930.541 583.459C925.932 580.903 923.073 576.048 923.073 570.778V177.978C923.073 172.708 925.932 167.852 930.541 165.297L1285.74 -31.6547Z" stroke="#D2BCBC" stroke-width="3"/>
</g>
<mask id="mask2" mask-type="alpha" maskUnits="userSpaceOnUse" x="0" y="373" width="389" height="519">
<rect width="388.152" height="519" transform="matrix(-1 0 0 1 388.156 373)" fill="#C4C4C4"/>
</mask>
<g mask="url(#mask2)">
<path d="M144.122 374.106C139.172 371.248 133.072 371.248 128.122 374.106L-67.3026 486.934C-72.253 489.793 -75.3026 495.075 -75.3026 500.791V726.448C-75.3026 732.164 -72.253 737.446 -67.3026 740.304L128.122 853.132C133.072 855.991 139.172 855.991 144.122 853.132L339.546 740.304C344.497 737.446 347.546 732.164 347.546 726.448V500.791C347.546 495.075 344.497 489.793 339.546 486.934L144.122 374.106Z" fill="#D2BCBC"/>
<path d="M156.324 386.518C151.95 384.092 146.635 384.092 142.261 386.518L-72.1763 505.42C-76.7854 507.976 -79.6449 512.831 -79.6449 518.101V754.803C-79.6449 760.073 -76.7854 764.928 -72.1764 767.484L142.261 886.386C146.635 888.811 151.95 888.811 156.324 886.386L370.762 767.484C375.371 764.928 378.23 760.073 378.23 754.803V518.101C378.23 512.831 375.371 507.976 370.762 505.42L156.324 386.518Z" stroke="#D2BCBC" stroke-width="3"/>
</g>
</g>
</g>
</svg>
