<svg width="168" height="145" viewBox="0 0 168 145" fill="none" xmlns="http://www.w3.org/2000/svg">
<path d="M24.1745 75.9339C28.7451 68.6839 29.6908 61.6834 29.5923 59.0894L26.9326 58.3014C19.8403 66.7729 19.9388 72.6832 22.4014 73.6682C24.864 74.6533 24.4853 75.4321 24.1745 75.9339Z" fill="#DED9D9"/>
<path fill-rule="evenodd" clip-rule="evenodd" d="M32.9646 38.4313C35.924 28.5133 41.5785 24.8155 44.24 24.2322L44.493 25.3868C42.3606 25.8542 36.9694 29.1438 34.0973 38.7693C31.1806 48.544 30.1359 53.2461 29.9788 54.3462L28.8086 54.179C28.9798 52.9807 30.0497 48.2 32.9646 38.4313Z" fill="#DED9D9"/>
<circle cx="29.3947" cy="54.4597" r="1.37908" fill="#FFDB81"/>
<circle cx="28.7026" cy="56.9223" r="2.65965" fill="#BE952E"/>
<path d="M36.2539 20.3906V22.3607L149.535 23.5428V21.6712L92.3035 0L36.2539 20.3906Z" fill="#FFDB81"/>
<path d="M147.759 23.0503L91.9068 1.97015L35.6602 22.3608L91.9068 42.8499L147.759 23.0503Z" fill="#EFC14D"/>
<path d="M60.4844 24.6263C88.4599 2.79745 131.638 14.8086 149.73 23.5427L127.961 36.2499C105.817 45.5489 73.7498 32.3754 60.4844 24.6263Z" fill="#BE952E"/>
<ellipse cx="93.1843" cy="53.0945" rx="32.7038" ry="7.38791" fill="#BE952E"/>
<path d="M125.888 53.1928V24.6263C120.175 21.6711 115.249 18.2234 94.5634 17.2384C78.0144 16.4503 64.946 21.8353 60.4805 24.6263V53.1928C64.9132 51.6496 77.5219 48.504 92.4947 48.2676C107.468 48.0312 120.996 51.4526 125.888 53.1928Z" fill="#FFDB81"/>
<path fill-rule="evenodd" clip-rule="evenodd" d="M125.888 52.6347V24.6056C125.445 24.3762 125.006 24.1438 124.564 23.9098C119.315 21.13 113.644 18.1263 94.5634 17.2177C78.0144 16.4297 64.946 21.8147 60.4805 24.6056V31.2719C98.4631 27.2749 119.808 43.6958 125.888 52.6347Z" fill="#EFC14D"/>
<path fill-rule="evenodd" clip-rule="evenodd" d="M44.4356 52.0107C41.5523 52.0107 39.2148 54.3481 39.2148 57.2315C39.2148 60.1148 41.5523 62.4523 44.4356 62.4523L135.55 62.4523V52.0107H44.4356ZM142.051 57.0404V57.4226C142.053 57.3592 142.055 57.2955 142.055 57.2315C142.055 57.1675 142.053 57.1038 142.051 57.0404Z" fill="url(#paint0_linear)"/>
<path fill-rule="evenodd" clip-rule="evenodd" d="M135.55 53.1927H44.4356C42.2051 53.1927 40.3969 55.0009 40.3969 57.2315C40.3969 59.462 42.2051 61.2702 44.4356 61.2702H135.55V62.4523L44.4356 62.4523C41.5523 62.4523 39.2148 60.1148 39.2148 57.2315C39.2148 54.3481 41.5523 52.0107 44.4356 52.0107H135.55V53.1927Z" fill="url(#paint1_linear)"/>
<path fill-rule="evenodd" clip-rule="evenodd" d="M135.55 99.6874L44.4356 99.6874C41.5523 99.6874 39.2148 102.025 39.2148 104.908C39.2148 107.792 41.5523 110.129 44.4356 110.129H136.834C136.837 110.129 136.841 110.129 136.845 110.129H135.55V99.6874ZM142.051 105.099C142.053 105.036 142.055 104.972 142.055 104.908C142.055 104.844 142.053 104.78 142.051 104.717V105.099Z" fill="url(#paint2_linear)"/>
<path fill-rule="evenodd" clip-rule="evenodd" d="M135.55 99.6874L44.4356 99.6874C41.5523 99.6874 39.2148 102.025 39.2148 104.908C39.2148 107.792 41.5523 110.129 44.4356 110.129H136.834C136.837 110.129 136.841 110.129 136.845 110.129H135.55V108.947H44.4356C42.2051 108.947 40.3969 107.139 40.3969 104.908C40.3969 102.678 42.2051 100.869 44.4356 100.869H135.55V99.6874Z" fill="url(#paint3_linear)"/>
<path fill-rule="evenodd" clip-rule="evenodd" d="M135.55 75.258L44.4356 75.258C41.5523 75.258 39.2148 77.8601 39.2148 81.0698C39.2148 84.2796 41.5523 86.8817 44.4356 86.8817H136.834C136.838 86.8817 136.842 86.8816 136.845 86.8816H135.55V75.258ZM142.051 81.2826C142.053 81.212 142.055 81.1411 142.055 81.0698C142.055 80.9986 142.053 80.9277 142.051 80.8571V81.2826Z" fill="url(#paint4_linear)"/>
<path fill-rule="evenodd" clip-rule="evenodd" d="M135.55 75.258L44.4356 75.258C41.5523 75.258 39.2148 77.8601 39.2148 81.0698C39.2148 84.2796 41.5523 86.8817 44.4356 86.8817H136.834C136.838 86.8817 136.842 86.8816 136.845 86.8816H135.55V85.5658H44.4356C42.2051 85.5658 40.3969 83.5529 40.3969 81.0698C40.3969 78.5868 42.2051 76.5739 44.4356 76.5739H135.55V75.258Z" fill="url(#paint5_linear)"/>
<path fill-rule="evenodd" clip-rule="evenodd" d="M39.4062 75.1827C39.6618 75.2321 39.9258 75.258 40.1958 75.258H91.4187C93.7036 75.258 95.5559 73.4057 95.5559 71.1207V66.5895C95.5559 64.3046 93.7036 62.4523 91.4187 62.4523H40.1958C39.9258 62.4523 39.6618 62.4781 39.4062 62.5275V75.1827Z" fill="#F8F7FC"/>
<path fill-rule="evenodd" clip-rule="evenodd" d="M90.8281 62.4523L94.5713 65.4074V72.5983L90.8281 75.258H131.609C133.894 75.258 135.747 73.4057 135.747 71.1207V66.5895C135.747 64.3046 133.894 62.4523 131.609 62.4523H90.8281Z" fill="#849EFB"/>
<path fill-rule="evenodd" clip-rule="evenodd" d="M39.4062 75.1828C39.6617 75.2321 39.9255 75.258 40.1954 75.258H91.4182C93.7032 75.258 95.5555 73.4057 95.5555 71.1207V66.5895C95.5555 64.3046 93.7032 62.4523 91.4182 62.4523H40.1954C39.9255 62.4523 39.6617 62.4781 39.4062 62.5274V64.3603C39.653 64.2729 39.9187 64.2254 40.1954 64.2254H91.4182C92.7239 64.2254 93.7824 65.2838 93.7824 66.5895V71.1207C93.7824 72.4264 92.7239 73.4849 91.4182 73.4849H40.1954C39.9187 73.4849 39.653 73.4373 39.4062 73.35V75.1828Z" fill="#BCCAFB"/>
<path fill-rule="evenodd" clip-rule="evenodd" d="M135.547 99.612C135.291 99.6614 135.027 99.6873 134.757 99.6873H83.5345C81.2495 99.6873 79.3972 97.835 79.3972 95.5501V91.0188C79.3972 88.7339 81.2495 86.8816 83.5345 86.8816H134.757C135.027 86.8816 135.291 86.9075 135.547 86.9569V99.612Z" fill="#F8F7FC"/>
<path fill-rule="evenodd" clip-rule="evenodd" d="M84.1289 86.8816L80.3857 89.8368V97.0277L84.1289 99.6873H43.3477C41.0627 99.6873 39.2104 97.835 39.2104 95.5501V91.0188C39.2104 88.7339 41.0627 86.8816 43.3477 86.8816H84.1289Z" fill="#6783F9"/>
<path fill-rule="evenodd" clip-rule="evenodd" d="M135.547 99.6121C135.291 99.6615 135.028 99.6873 134.758 99.6873H83.5349C81.25 99.6873 79.3977 97.835 79.3977 95.5501V91.0188C79.3977 88.7339 81.25 86.8816 83.5349 86.8816H134.758C135.028 86.8816 135.291 86.9074 135.547 86.9568V88.7896C135.3 88.7022 135.034 88.6547 134.758 88.6547H83.5349C82.2292 88.6547 81.1708 89.7131 81.1708 91.0188V95.5501C81.1708 96.8557 82.2292 97.9142 83.5349 97.9142H134.758C135.034 97.9142 135.3 97.8667 135.547 97.7793V99.6121Z" fill="#BCCAFB"/>
<path fill-rule="evenodd" clip-rule="evenodd" d="M36.447 140.075C36.447 140.075 36.447 140.075 36.447 140.075C36.4469 142.468 28.288 144.409 18.2235 144.409C8.15903 144.409 0.000149524 142.468 0 140.075C0 140.075 0 140.075 0 140.075V134.952M36.447 140.075V134.952C36.447 132.559 28.2881 130.618 18.2235 130.618C8.15897 130.618 4.55077e-05 132.559 0 134.952" fill="url(#paint6_linear)"/>
<ellipse cx="18.2274" cy="134.952" rx="18.2235" ry="4.33424" fill="#FDD474"/>
<path fill-rule="evenodd" clip-rule="evenodd" d="M36.3761 140.065C36.4228 139.938 36.4467 139.81 36.4467 139.681C36.4467 139.673 36.4468 139.666 36.447 139.658V140.075V140.075C36.4469 142.468 28.288 144.409 18.2235 144.409C8.15903 144.409 0.000149524 142.468 0 140.075V140.075V139.707C0.059446 142.089 8.19547 144.015 18.2232 144.015C27.7437 144.015 35.559 142.279 36.3761 140.065Z" fill="#D7AA2F"/>
<ellipse cx="18.2237" cy="135.051" rx="15.0713" ry="2.85666" fill="#F6C958"/>
<path fill-rule="evenodd" clip-rule="evenodd" d="M95.9431 138.893C95.9431 138.893 95.9431 138.893 95.9431 138.893C95.943 141.286 87.7841 143.227 77.7196 143.227C67.6551 143.227 59.4962 141.286 59.4961 138.893C59.4961 138.893 59.4961 138.893 59.4961 138.893V133.77C59.4961 133.77 59.4961 133.77 59.4961 133.77C59.4961 131.377 67.655 129.436 77.7196 129.436C87.7842 129.436 95.9431 131.377 95.9431 133.77C95.9431 133.77 95.9431 133.77 95.9431 133.77V138.893Z" fill="url(#paint7_linear)"/>
<ellipse cx="77.7196" cy="133.77" rx="18.2235" ry="4.33424" fill="#FDD474"/>
<path fill-rule="evenodd" clip-rule="evenodd" d="M77.722 142.833C87.7865 142.833 95.9455 140.892 95.9455 138.499C95.9455 138.468 95.9474 138.435 95.9509 138.4V138.893V138.893C95.9508 141.286 87.7919 143.227 77.7274 143.227C67.6629 143.227 59.5041 141.286 59.5039 138.893V138.893V138.605C59.7424 140.95 67.8076 142.833 77.722 142.833Z" fill="#D7AA2F"/>
<ellipse cx="77.7237" cy="133.869" rx="15.0713" ry="2.85666" fill="#F6C958"/>
<path fill-rule="evenodd" clip-rule="evenodd" d="M66.5781 132.588C66.5781 132.588 66.5781 132.588 66.5781 132.588C66.5781 134.982 74.7371 136.922 84.8016 136.922C94.8662 136.922 103.025 134.982 103.025 132.588V127.466C103.025 125.072 94.8662 123.132 84.8016 123.132C74.7371 123.132 66.5781 125.072 66.5781 127.466V132.588Z" fill="url(#paint8_linear)"/>
<ellipse cx="84.8094" cy="127.466" rx="18.2235" ry="4.33424" fill="#FDD474"/>
<path fill-rule="evenodd" clip-rule="evenodd" d="M66.5781 132.154V132.588V132.588C66.5781 134.982 74.7371 136.922 84.8016 136.922C94.8662 136.922 103.025 134.982 103.025 132.588V132.237C102.928 134.611 94.8065 136.528 84.8025 136.528C74.738 136.528 66.579 134.588 66.579 132.194C66.579 132.181 66.5787 132.168 66.5781 132.154Z" fill="#D7AA2F"/>
<ellipse cx="84.8057" cy="127.564" rx="15.0713" ry="2.85666" fill="#F6C958"/>
<path fill-rule="evenodd" clip-rule="evenodd" d="M69.7422 123.329C69.7422 123.329 69.7422 123.329 69.7422 123.329C69.7422 125.722 77.9011 127.663 87.9657 127.663C98.0303 127.663 106.189 125.722 106.189 123.329V118.25C106.19 118.236 106.19 118.221 106.19 118.206C106.19 115.813 98.0312 113.872 87.9666 113.872C77.902 113.872 69.7431 115.813 69.7431 118.206L69.7422 118.206V123.329Z" fill="url(#paint9_linear)"/>
<ellipse cx="87.9657" cy="118.206" rx="18.2235" ry="4.33424" fill="#FDD474"/>
<path fill-rule="evenodd" clip-rule="evenodd" d="M87.9724 127.27C98.0369 127.27 106.196 125.329 106.196 122.935C106.196 122.906 106.198 122.874 106.201 122.84V123.329C106.201 125.723 98.042 127.664 87.9774 127.664C77.9128 127.664 69.7539 125.723 69.7539 123.329V123.329V123.039C69.9843 125.385 78.0528 127.27 87.9724 127.27Z" fill="#D7AA2F"/>
<ellipse cx="87.9659" cy="118.305" rx="15.0713" ry="2.85666" fill="#F6C958"/>
<path fill-rule="evenodd" clip-rule="evenodd" d="M75.6406 116.236C75.6406 116.236 75.6406 116.236 75.6406 116.236C75.6406 118.63 83.7996 120.57 93.8641 120.57C103.929 120.57 112.088 118.63 112.088 116.236V111.114C112.088 108.72 103.929 106.78 93.8641 106.78C83.7996 106.78 75.6406 108.72 75.6406 111.114V116.236Z" fill="url(#paint10_linear)"/>
<ellipse cx="93.8719" cy="111.114" rx="18.2235" ry="4.33424" fill="#FDD474"/>
<path fill-rule="evenodd" clip-rule="evenodd" d="M75.6406 115.803V116.236V116.236C75.6406 118.63 83.7996 120.571 93.8641 120.571C103.929 120.571 112.088 118.63 112.088 116.236V115.885C111.99 118.259 103.869 120.176 93.865 120.176C83.8005 120.176 75.6415 118.236 75.6415 115.842C75.6415 115.829 75.6412 115.816 75.6406 115.803Z" fill="#D7AA2F"/>
<ellipse cx="93.8682" cy="111.212" rx="15.0713" ry="2.85666" fill="#F6C958"/>
<path fill-rule="evenodd" clip-rule="evenodd" d="M33.293 138.301C33.293 138.301 33.293 138.301 33.293 138.302C33.293 140.695 41.4519 142.636 51.5165 142.636C61.581 142.636 69.74 140.695 69.74 138.302V133.179C69.74 130.785 61.581 128.845 51.5165 128.845C41.4519 128.845 33.293 130.785 33.293 133.179V138.301Z" fill="url(#paint11_linear)"/>
<ellipse cx="51.5243" cy="133.179" rx="18.2235" ry="4.33424" fill="#FDD474"/>
<path fill-rule="evenodd" clip-rule="evenodd" d="M33.293 137.865V138.301V138.301C33.293 140.695 41.4519 142.636 51.5165 142.636C61.581 142.636 69.74 140.695 69.74 138.301V137.954C69.6344 140.326 61.5164 142.242 51.5175 142.242C41.4529 142.242 33.294 140.301 33.294 137.907C33.294 137.894 33.2937 137.879 33.293 137.865Z" fill="#D7AA2F"/>
<ellipse cx="51.5205" cy="133.278" rx="15.0713" ry="2.85666" fill="#F6C958"/>
<path fill-rule="evenodd" clip-rule="evenodd" d="M37.625 128.451C37.625 128.451 37.625 128.451 37.625 128.451C37.625 130.845 45.7839 132.785 55.8485 132.785C65.9131 132.785 74.072 130.845 74.072 128.451V123.329C74.072 120.935 65.9131 118.995 55.8485 118.995C45.7839 118.995 37.625 120.935 37.625 123.329V128.451Z" fill="url(#paint12_linear)"/>
<ellipse cx="55.8485" cy="123.329" rx="18.2235" ry="4.33424" fill="#FDD474"/>
<path fill-rule="evenodd" clip-rule="evenodd" d="M55.8575 132.391C65.922 132.391 74.081 130.451 74.081 128.057C74.081 128.023 74.0833 127.986 74.0876 127.946V128.451C74.0876 130.845 65.9287 132.785 55.8641 132.785C45.7996 132.785 37.6406 130.845 37.6406 128.451V128.451V128.175C37.9045 130.514 45.9594 132.391 55.8575 132.391Z" fill="#D7AA2F"/>
<ellipse cx="55.8565" cy="123.427" rx="15.0713" ry="2.85666" fill="#F6C958"/>
<path fill-rule="evenodd" clip-rule="evenodd" d="M115.067 137.513C115.067 137.513 115.067 137.513 115.067 137.513C115.067 139.907 123.226 141.848 133.291 141.848C143.355 141.848 151.514 139.907 151.514 137.513V132.391L151.513 132.391C151.513 129.997 143.354 128.057 133.29 128.057C123.225 128.057 115.066 129.997 115.066 132.391C115.066 132.405 115.067 132.419 115.067 132.433V137.513Z" fill="#F4B734"/>
<ellipse cx="133.286" cy="132.391" rx="18.2235" ry="4.33424" fill="#FDD474"/>
<path fill-rule="evenodd" clip-rule="evenodd" d="M133.288 141.454C143.352 141.454 151.511 139.513 151.511 137.119C151.511 137.086 151.513 137.051 151.517 137.012V137.514C151.517 139.907 143.358 141.848 133.294 141.848C123.229 141.848 115.07 139.907 115.07 137.514V137.513V137.234C115.326 139.575 123.384 141.454 133.288 141.454Z" fill="#D7AA2F"/>
<ellipse cx="133.286" cy="132.49" rx="15.0713" ry="2.85666" fill="#F6C958"/>
<path fill-rule="evenodd" clip-rule="evenodd" d="M115.067 132.194C115.067 132.194 115.067 132.194 115.067 132.194C115.067 134.588 123.226 136.528 133.291 136.528C143.355 136.528 151.514 134.588 151.514 132.194V127.072L151.513 127.072C151.513 124.678 143.354 122.738 133.29 122.738C123.225 122.738 115.066 124.678 115.066 127.072C115.066 127.086 115.067 127.1 115.067 127.114V132.194Z" fill="#F4B734"/>
<ellipse cx="133.286" cy="127.072" rx="18.2235" ry="4.33424" fill="#FDD474"/>
<path fill-rule="evenodd" clip-rule="evenodd" d="M133.288 136.134C143.352 136.134 151.511 134.194 151.511 131.8C151.511 131.767 151.513 131.731 151.517 131.693V132.194V132.194C151.517 134.588 143.358 136.528 133.294 136.528C123.229 136.528 115.07 134.588 115.07 132.194V132.194V131.915C115.326 134.256 123.384 136.134 133.288 136.134Z" fill="#D7AA2F"/>
<ellipse cx="133.286" cy="127.17" rx="15.0713" ry="2.85666" fill="#F6C958"/>
<path fill-rule="evenodd" clip-rule="evenodd" d="M115.067 126.875C115.067 126.875 115.067 126.875 115.067 126.875C115.067 129.268 123.226 131.209 133.291 131.209C143.355 131.209 151.514 129.268 151.514 126.875V121.752L151.513 121.752C151.513 119.359 143.354 117.418 133.29 117.418C123.225 117.418 115.066 119.359 115.066 121.752C115.066 121.766 115.067 121.78 115.067 121.794V126.875Z" fill="#F4B734"/>
<ellipse cx="133.286" cy="121.752" rx="18.2235" ry="4.33424" fill="#FDD474"/>
<path fill-rule="evenodd" clip-rule="evenodd" d="M133.288 130.815C143.352 130.815 151.511 128.875 151.511 126.481C151.511 126.448 151.513 126.412 151.517 126.374V126.875C151.517 129.269 143.358 131.209 133.294 131.209C123.229 131.209 115.07 129.269 115.07 126.875V126.875V126.596C115.326 128.936 123.384 130.815 133.288 130.815Z" fill="#D7AA2F"/>
<ellipse cx="133.286" cy="121.851" rx="15.0713" ry="2.85666" fill="#F6C958"/>
<path fill-rule="evenodd" clip-rule="evenodd" d="M115.067 121.556C115.067 121.556 115.067 121.556 115.067 121.556C115.067 123.949 123.226 125.89 133.291 125.89C143.355 125.89 151.514 123.949 151.514 121.556V116.433L151.513 116.433C151.513 114.04 143.354 112.099 133.29 112.099C123.225 112.099 115.066 114.04 115.066 116.433C115.066 116.447 115.067 116.461 115.067 116.475V121.556Z" fill="#F4B734"/>
<ellipse cx="133.286" cy="116.433" rx="18.2235" ry="4.33424" fill="#FDD474"/>
<path fill-rule="evenodd" clip-rule="evenodd" d="M133.288 125.496C143.352 125.496 151.511 123.555 151.511 121.162C151.511 121.128 151.513 121.093 151.517 121.054V121.555V121.556C151.517 123.949 143.358 125.89 133.294 125.89C123.229 125.89 115.07 123.949 115.07 121.556V121.555V121.276C115.326 123.617 123.384 125.496 133.288 125.496Z" fill="#D7AA2F"/>
<ellipse cx="133.286" cy="116.532" rx="15.0713" ry="2.85666" fill="#F6C958"/>
<path fill-rule="evenodd" clip-rule="evenodd" d="M115.067 116.236C115.067 116.236 115.067 116.236 115.067 116.236C115.067 118.63 123.226 120.571 133.291 120.571C143.355 120.571 151.514 118.63 151.514 116.236V111.114L151.513 111.114C151.513 108.72 143.354 106.78 133.29 106.78C123.225 106.78 115.066 108.72 115.066 111.114C115.066 111.128 115.067 111.142 115.067 111.156V116.236Z" fill="#F4B734"/>
<ellipse cx="133.286" cy="111.114" rx="18.2235" ry="4.33424" fill="#FDD474"/>
<path fill-rule="evenodd" clip-rule="evenodd" d="M133.288 120.177C143.352 120.177 151.511 118.236 151.511 115.842C151.511 115.809 151.513 115.773 151.517 115.735V116.236C151.517 118.63 143.358 120.571 133.294 120.571C123.229 120.571 115.07 118.63 115.07 116.236V116.236V115.957C115.326 118.298 123.384 120.177 133.288 120.177Z" fill="#D7AA2F"/>
<ellipse cx="133.286" cy="111.212" rx="15.0713" ry="2.85666" fill="#F6C958"/>
<path fill-rule="evenodd" clip-rule="evenodd" d="M115.067 110.917C115.067 110.917 115.067 110.917 115.067 110.917C115.067 113.311 123.226 115.251 133.291 115.251C143.355 115.251 151.514 113.311 151.514 110.917V105.795L151.513 105.795C151.513 103.401 143.354 101.46 133.29 101.46C123.225 101.46 115.066 103.401 115.066 105.795C115.066 105.809 115.067 105.823 115.067 105.837V110.917Z" fill="#F4B734"/>
<ellipse cx="133.286" cy="105.795" rx="18.2235" ry="4.33424" fill="#FDD474"/>
<path fill-rule="evenodd" clip-rule="evenodd" d="M133.288 114.857C143.352 114.857 151.511 112.917 151.511 110.523C151.511 110.49 151.513 110.454 151.517 110.416V110.917C151.517 113.311 143.358 115.251 133.294 115.251C123.229 115.251 115.07 113.311 115.07 110.917V110.917V110.638C115.326 112.978 123.384 114.857 133.288 114.857Z" fill="#D7AA2F"/>
<ellipse cx="133.286" cy="105.893" rx="15.0713" ry="2.85666" fill="#F6C958"/>
<path fill-rule="evenodd" clip-rule="evenodd" d="M115.067 105.598C115.067 105.598 115.067 105.598 115.067 105.598C115.067 107.992 123.226 109.932 133.291 109.932C143.355 109.932 151.514 107.992 151.514 105.598V100.476H151.513C151.513 100.476 151.513 100.476 151.513 100.476C151.513 98.0818 143.354 96.1413 133.29 96.1413C123.225 96.1413 115.066 98.0818 115.066 100.476C115.066 100.49 115.067 100.504 115.067 100.518V105.598Z" fill="#F4B734"/>
<ellipse cx="133.286" cy="100.475" rx="18.2235" ry="4.33424" fill="#FDD474"/>
<path fill-rule="evenodd" clip-rule="evenodd" d="M133.288 109.538C143.352 109.538 151.511 107.598 151.511 105.204C151.511 105.171 151.513 105.135 151.517 105.097V105.598C151.517 107.992 143.358 109.932 133.294 109.932C123.229 109.932 115.07 107.992 115.07 105.598V105.598V105.319C115.326 107.659 123.384 109.538 133.288 109.538Z" fill="#D7AA2F"/>
<ellipse cx="133.286" cy="100.574" rx="15.0713" ry="2.85666" fill="#F6C958"/>
<path fill-rule="evenodd" clip-rule="evenodd" d="M115.067 100.672C115.067 100.672 115.067 100.672 115.067 100.672C115.067 103.066 123.226 105.007 133.291 105.007C143.355 105.007 151.514 103.066 151.514 100.672V95.55L151.513 95.55C151.513 93.1563 143.354 91.2158 133.29 91.2158C123.225 91.2158 115.066 93.1563 115.066 95.55C115.066 95.564 115.067 95.578 115.067 95.592V100.672Z" fill="#F4B734"/>
<ellipse cx="133.286" cy="95.5501" rx="18.2235" ry="4.33424" fill="#FDD474"/>
<path fill-rule="evenodd" clip-rule="evenodd" d="M133.288 104.613C143.352 104.613 151.511 102.672 151.511 100.279C151.511 100.245 151.513 100.21 151.517 100.171V100.673V100.673C151.517 103.066 143.358 105.007 133.294 105.007C123.229 105.007 115.07 103.066 115.07 100.673V100.673V100.393C115.326 102.734 123.384 104.613 133.288 104.613Z" fill="#D7AA2F"/>
<ellipse cx="133.286" cy="95.6485" rx="15.0713" ry="2.85666" fill="#F6C958"/>
<path fill-rule="evenodd" clip-rule="evenodd" d="M115.067 95.7472C115.067 95.7472 115.067 95.7472 115.067 95.7472C115.067 98.1409 123.226 100.081 133.291 100.081C143.355 100.081 151.514 98.1409 151.514 95.7472V90.6249L151.513 90.6249C151.513 88.2312 143.354 86.2906 133.29 86.2906C123.225 86.2906 115.066 88.2312 115.066 90.6249C115.066 90.6389 115.067 90.6529 115.067 90.6669V95.7472Z" fill="#F4B734"/>
<ellipse cx="133.286" cy="90.6248" rx="18.2235" ry="4.33424" fill="#FDD474"/>
<path fill-rule="evenodd" clip-rule="evenodd" d="M133.288 99.6874C143.352 99.6874 151.511 97.7469 151.511 95.3532C151.511 95.32 151.513 95.2842 151.517 95.246V95.7471V95.7471C151.517 98.1408 143.358 100.081 133.294 100.081C123.229 100.081 115.07 98.1408 115.07 95.7471V95.7471V95.468C115.326 97.8086 123.384 99.6874 133.288 99.6874Z" fill="#D7AA2F"/>
<ellipse cx="133.286" cy="90.7234" rx="15.0713" ry="2.85666" fill="#F6C958"/>
<path fill-rule="evenodd" clip-rule="evenodd" d="M115.067 90.8219C115.067 90.8219 115.067 90.8219 115.067 90.8219C115.067 93.2156 123.226 95.1561 133.291 95.1561C143.355 95.1561 151.514 93.2156 151.514 90.8219V85.6996L151.513 85.6996C151.513 83.3059 143.354 81.3654 133.29 81.3654C123.225 81.3654 115.066 83.3059 115.066 85.6996C115.066 85.7136 115.067 85.7276 115.067 85.7416V90.8219Z" fill="#F4B734"/>
<ellipse cx="133.286" cy="85.6996" rx="18.2235" ry="4.33424" fill="#FDD474"/>
<path fill-rule="evenodd" clip-rule="evenodd" d="M133.288 94.762C143.352 94.762 151.511 92.8215 151.511 90.4278C151.511 90.3946 151.513 90.3589 151.517 90.3207V90.8218V90.8219C151.517 93.2156 143.358 95.1561 133.294 95.1561C123.229 95.1561 115.07 93.2156 115.07 90.8219V90.8218V90.5426C115.326 92.8833 123.384 94.762 133.288 94.762Z" fill="#D7AA2F"/>
<ellipse cx="133.286" cy="85.7981" rx="15.0713" ry="2.85666" fill="#F6C958"/>
<path fill-rule="evenodd" clip-rule="evenodd" d="M115.067 85.8967C115.067 85.8967 115.067 85.8967 115.067 85.8967C115.067 88.2904 123.226 90.2309 133.291 90.2309C143.355 90.2309 151.514 88.2904 151.514 85.8967V80.7744H151.513C151.513 80.7744 151.513 80.7744 151.513 80.7744C151.513 78.3806 143.354 76.4401 133.29 76.4401C123.225 76.4401 115.066 78.3806 115.066 80.7744C115.066 80.7884 115.067 80.8024 115.067 80.8164V85.8967Z" fill="#F4B734"/>
<ellipse cx="133.286" cy="80.7743" rx="18.2235" ry="4.33424" fill="#FDD474"/>
<path fill-rule="evenodd" clip-rule="evenodd" d="M133.288 89.837C143.352 89.837 151.511 87.8965 151.511 85.5027C151.511 85.4696 151.513 85.4338 151.517 85.3956V85.8968C151.517 88.2905 143.358 90.231 133.294 90.231C123.229 90.231 115.07 88.2905 115.07 85.8968V85.8968V85.6176C115.326 87.9582 123.384 89.837 133.288 89.837Z" fill="#D7AA2F"/>
<ellipse cx="133.286" cy="80.8728" rx="15.0713" ry="2.85666" fill="#F6C958"/>
<path fill-rule="evenodd" clip-rule="evenodd" d="M115.067 80.9713C115.067 80.9713 115.067 80.9713 115.067 80.9713C115.067 83.3651 123.226 85.3056 133.291 85.3056C143.355 85.3056 151.514 83.3651 151.514 80.9713V75.849H151.513C151.513 75.849 151.513 75.849 151.513 75.849C151.513 73.4553 143.354 71.5148 133.29 71.5148C123.225 71.5148 115.066 73.4553 115.066 75.849C115.066 75.863 115.067 75.877 115.067 75.891V80.9713Z" fill="#F4B734"/>
<ellipse cx="133.286" cy="75.8489" rx="18.2235" ry="4.33424" fill="#FDD474"/>
<path fill-rule="evenodd" clip-rule="evenodd" d="M133.288 84.9116C143.352 84.9116 151.511 82.9711 151.511 80.5774C151.511 80.5442 151.513 80.5085 151.517 80.4703V80.9713V80.9714C151.517 83.3651 143.358 85.3055 133.294 85.3055C123.229 85.3055 115.07 83.3651 115.07 80.9714V80.9713V80.6922C115.326 83.0329 123.384 84.9116 133.288 84.9116Z" fill="#D7AA2F"/>
<ellipse cx="133.286" cy="75.9475" rx="15.0713" ry="2.85666" fill="#F6C958"/>
<path fill-rule="evenodd" clip-rule="evenodd" d="M127.271 139.878C127.271 139.878 127.271 139.878 127.271 139.878C127.271 142.271 119.112 144.212 109.048 144.212C98.9833 144.212 90.8244 142.271 90.8242 139.878C90.8242 139.878 90.8242 139.878 90.8242 139.878V134.755H90.8247C90.8247 134.755 90.8247 134.755 90.8247 134.755C90.8247 132.362 98.9837 130.421 109.048 130.421C119.113 130.421 127.272 132.362 127.272 134.755C127.272 134.766 127.272 134.777 127.271 134.788V139.878Z" fill="#FEC850"/>
<ellipse cx="109.048" cy="134.755" rx="18.2235" ry="4.33424" fill="#FDD474"/>
<path fill-rule="evenodd" clip-rule="evenodd" d="M109.047 143.818C119.112 143.818 127.271 141.877 127.271 139.484C127.271 139.476 127.271 139.468 127.271 139.461V139.878V139.878C127.271 142.271 119.112 144.212 109.048 144.212C98.9833 144.212 90.8244 142.271 90.8242 139.878V139.878V139.51C90.8837 141.891 99.0197 143.818 109.047 143.818Z" fill="#D7AA2F"/>
<ellipse cx="109.044" cy="134.854" rx="15.0713" ry="2.85666" fill="#F6C958"/>
<path fill-rule="evenodd" clip-rule="evenodd" d="M90.8242 134.558C90.8242 134.558 90.8242 134.558 90.8242 134.558C90.8242 136.952 98.9832 138.893 109.048 138.893C119.112 138.893 127.271 136.952 127.271 134.558C127.271 134.558 127.271 134.558 127.271 134.558V129.468C127.272 129.458 127.272 129.447 127.272 129.436C127.272 127.042 119.113 125.102 109.048 125.102C98.9838 125.102 90.825 127.042 90.8247 129.436H90.8242V134.558Z" fill="#FEC850"/>
<ellipse cx="109.048" cy="129.436" rx="18.2235" ry="4.33424" fill="#FDD474"/>
<path fill-rule="evenodd" clip-rule="evenodd" d="M109.047 138.498C119.112 138.498 127.271 136.558 127.271 134.164C127.271 134.157 127.271 134.149 127.271 134.141V134.558C127.271 136.952 119.112 138.893 109.048 138.893C98.9832 138.893 90.8242 136.952 90.8242 134.558V134.558V134.191C90.8837 136.572 99.0197 138.498 109.047 138.498Z" fill="#D7AA2F"/>
<ellipse cx="109.044" cy="129.535" rx="15.0713" ry="2.85666" fill="#F6C958"/>
<path fill-rule="evenodd" clip-rule="evenodd" d="M127.271 129.239C127.271 129.239 127.271 129.239 127.271 129.239C127.271 131.633 119.112 133.573 109.048 133.573C98.9833 133.573 90.8244 131.633 90.8242 129.239C90.8242 129.239 90.8242 129.239 90.8242 129.239V124.117H90.8247C90.8247 124.117 90.8247 124.117 90.8247 124.117C90.8247 121.723 98.9837 119.783 109.048 119.783C119.113 119.783 127.272 121.723 127.272 124.117C127.272 124.128 127.272 124.138 127.271 124.149V129.239Z" fill="#FEC850"/>
<ellipse cx="109.048" cy="124.117" rx="18.2235" ry="4.33424" fill="#FDD474"/>
<path fill-rule="evenodd" clip-rule="evenodd" d="M109.047 133.179C119.112 133.179 127.271 131.239 127.271 128.845C127.271 128.838 127.271 128.83 127.271 128.822V129.239V129.239C127.271 131.633 119.112 133.573 109.048 133.573C98.9833 133.573 90.8244 131.633 90.8242 129.239V129.239V128.871C90.8837 131.253 99.0197 133.179 109.047 133.179Z" fill="#D7AA2F"/>
<ellipse cx="109.044" cy="124.215" rx="15.0713" ry="2.85666" fill="#F6C958"/>
<path fill-rule="evenodd" clip-rule="evenodd" d="M90.8242 123.92C90.8242 123.92 90.8242 123.92 90.8242 123.92C90.8242 126.314 98.9832 128.254 109.048 128.254C119.112 128.254 127.271 126.314 127.271 123.92C127.271 123.92 127.271 123.92 127.271 123.92V118.83C127.272 118.819 127.272 118.808 127.272 118.798C127.272 116.404 119.113 114.463 109.048 114.463C98.9837 114.463 90.8248 116.404 90.8247 118.798H90.8242V123.92Z" fill="#FEC850"/>
<ellipse cx="109.048" cy="118.798" rx="18.2235" ry="4.33424" fill="#FDD474"/>
<path fill-rule="evenodd" clip-rule="evenodd" d="M109.047 127.86C119.112 127.86 127.271 125.919 127.271 123.526C127.271 123.518 127.271 123.51 127.271 123.503V123.92V123.92C127.271 126.314 119.112 128.254 109.048 128.254C98.9832 128.254 90.8242 126.314 90.8242 123.92V123.92V123.552C90.8837 125.933 99.0197 127.86 109.047 127.86Z" fill="#D7AA2F"/>
<ellipse cx="109.044" cy="118.896" rx="15.0713" ry="2.85666" fill="#F6C958"/>
<path fill-rule="evenodd" clip-rule="evenodd" d="M90.8242 118.601C90.8242 118.601 90.8242 118.601 90.8242 118.601C90.8242 120.994 98.9832 122.935 109.048 122.935C119.112 122.935 127.271 120.994 127.271 118.601V113.511C127.272 113.5 127.272 113.489 127.272 113.478C127.272 111.085 119.113 109.144 109.048 109.144C98.9837 109.144 90.8248 111.085 90.8247 113.478H90.8242V118.601Z" fill="#FEC850"/>
<ellipse cx="109.048" cy="113.478" rx="18.2235" ry="4.33424" fill="#FDD474"/>
<path fill-rule="evenodd" clip-rule="evenodd" d="M109.047 122.541C119.112 122.541 127.271 120.6 127.271 118.206C127.271 118.199 127.271 118.191 127.271 118.184V118.601C127.271 120.994 119.112 122.935 109.048 122.935C98.9832 122.935 90.8242 120.994 90.8242 118.601V118.601V118.233C90.8837 120.614 99.0197 122.541 109.047 122.541Z" fill="#D7AA2F"/>
<ellipse cx="109.044" cy="113.577" rx="15.0713" ry="2.85666" fill="#F6C958"/>
<path fill-rule="evenodd" clip-rule="evenodd" d="M90.8242 113.281C90.8242 113.281 90.8242 113.281 90.8242 113.281C90.8242 115.675 98.9832 117.615 109.048 117.615C119.112 117.615 127.271 115.675 127.271 113.281V108.191C127.272 108.18 127.272 108.17 127.272 108.159C127.272 105.765 119.113 103.825 109.048 103.825C98.9838 103.825 90.8249 105.765 90.8247 108.159H90.8242V113.281Z" fill="#FEC850"/>
<ellipse cx="109.048" cy="108.159" rx="18.2235" ry="4.33424" fill="#FDD474"/>
<path fill-rule="evenodd" clip-rule="evenodd" d="M109.047 117.221C119.112 117.221 127.271 115.281 127.271 112.887C127.271 112.88 127.271 112.872 127.271 112.864V113.281C127.271 115.675 119.112 117.615 109.048 117.615C98.9832 117.615 90.8242 115.675 90.8242 113.281V113.281V112.913C90.8837 115.295 99.0197 117.221 109.047 117.221Z" fill="#D7AA2F"/>
<ellipse cx="109.044" cy="108.257" rx="15.0713" ry="2.85666" fill="#F6C958"/>
<path fill-rule="evenodd" clip-rule="evenodd" d="M90.8242 107.962C90.8242 107.962 90.8242 107.962 90.8242 107.962C90.8242 110.356 98.9832 112.296 109.048 112.296C119.112 112.296 127.271 110.356 127.271 107.962V102.872C127.272 102.861 127.272 102.85 127.272 102.84C127.272 100.446 119.113 98.5054 109.048 98.5054C98.9837 98.5054 90.8247 100.446 90.8247 102.84C90.8247 102.84 90.8247 102.84 90.8247 102.84H90.8242V107.962Z" fill="#FEC850"/>
<ellipse cx="109.048" cy="102.84" rx="18.2235" ry="4.33424" fill="#FDD474"/>
<path fill-rule="evenodd" clip-rule="evenodd" d="M109.047 111.902C119.112 111.902 127.271 109.962 127.271 107.568C127.271 107.56 127.271 107.553 127.271 107.545V107.962C127.271 110.356 119.112 112.296 109.048 112.296C98.9832 112.296 90.8242 110.356 90.8242 107.962V107.962V107.594C90.8837 109.976 99.0197 111.902 109.047 111.902Z" fill="#D7AA2F"/>
<ellipse cx="109.044" cy="102.938" rx="15.0713" ry="2.85666" fill="#F6C958"/>
<path d="M167.064 122.935C167.064 135.121 157.185 145 144.999 145C132.813 145 122.934 135.121 122.934 122.935C122.934 110.748 132.813 100.869 144.999 100.869C157.185 100.869 167.064 110.748 167.064 122.935Z" fill="#F1AC17"/>
<path fill-rule="evenodd" clip-rule="evenodd" d="M144.999 140.469C154.683 140.469 162.533 132.618 162.533 122.935C162.533 113.251 154.683 105.401 144.999 105.401C135.315 105.401 127.465 113.251 127.465 122.935C127.465 132.618 135.315 140.469 144.999 140.469ZM144.999 145C157.185 145 167.064 135.121 167.064 122.935C167.064 110.748 157.185 100.869 144.999 100.869C132.813 100.869 122.934 110.748 122.934 122.935C122.934 135.121 132.813 145 144.999 145Z" fill="#FDD474"/>
<path d="M152.689 126.832C152.689 123.891 150.673 122.677 148.391 121.96C147.364 121.638 146.616 120.727 146.616 119.65V119.139C146.616 118.019 147.604 117.145 148.663 117.51C148.701 117.524 148.74 117.537 148.778 117.551C149.782 117.91 150.96 117.517 151.36 116.528V116.528C151.677 115.743 151.393 114.829 150.613 114.5C149.802 114.158 148.906 113.908 147.976 113.747C147.213 113.615 146.616 112.979 146.616 112.205V112.023C146.616 111.303 146.033 110.72 145.313 110.72V110.72C144.593 110.72 144.01 111.303 144.01 112.023V112.257C144.01 113.038 143.418 113.68 142.66 113.867C139.452 114.659 137.884 116.806 137.884 119.261C137.884 122.255 139.949 123.475 142.254 124.205C143.273 124.528 144.01 125.435 144.01 126.503V126.503C144.01 127.872 142.814 128.958 141.519 128.513C141.283 128.432 141.051 128.344 140.826 128.249C139.808 127.82 138.524 128.155 138.072 129.163V129.163C137.747 129.887 137.954 130.751 138.658 131.116C139.759 131.686 141.149 132.119 142.633 132.344C143.402 132.461 144.01 133.097 144.01 133.875V134.043C144.01 134.763 144.593 135.346 145.313 135.346V135.346C146.033 135.346 146.616 134.763 146.616 134.043V133.79C146.616 133.004 147.209 132.356 147.972 132.162C151.147 131.355 152.689 129.236 152.689 126.832ZM142.081 119.051C142.081 118.646 142.201 118.263 142.471 117.939C143.054 117.24 144.01 117.979 144.01 118.89V118.89C144.01 119.851 142.932 120.641 142.352 119.875C142.177 119.644 142.081 119.373 142.081 119.051ZM148.102 128.194C147.523 128.844 146.616 128.129 146.616 127.259V127.259C146.616 126.32 147.68 125.565 148.232 126.324C148.4 126.556 148.493 126.825 148.493 127.146C148.493 127.538 148.368 127.895 148.102 128.194Z" fill="#F4CD6F"/>
<path fill-rule="evenodd" clip-rule="evenodd" d="M20.8828 131.997C20.8828 131.997 20.8828 131.997 20.8828 131.997C20.8828 134.391 29.0418 136.331 39.1063 136.331C49.1709 136.331 57.3298 134.391 57.3298 131.997V126.875C57.3298 124.481 49.1709 122.541 39.1063 122.541C29.0418 122.541 20.8828 124.481 20.8828 126.875V131.997Z" fill="url(#paint13_linear)"/>
<ellipse cx="39.1063" cy="126.875" rx="18.2235" ry="4.33424" fill="#FDD474"/>
<path fill-rule="evenodd" clip-rule="evenodd" d="M39.1086 135.937C49.1732 135.937 57.3321 133.997 57.3321 131.603C57.3321 131.572 57.334 131.539 57.3376 131.503V131.997C57.3376 134.391 49.1787 136.331 39.1141 136.331C29.0496 136.331 20.8906 134.391 20.8906 131.997V131.997V131.711C21.1308 134.055 29.1953 135.937 39.1086 135.937Z" fill="#D7AA2F"/>
<ellipse cx="39.1026" cy="126.973" rx="15.0713" ry="2.85666" fill="#F6C958"/>
<defs>
<linearGradient id="paint0_linear" x1="39.8458" y1="57.6255" x2="142.054" y2="57.2887" gradientUnits="userSpaceOnUse">
<stop stop-color="#F8F7FC"/>
<stop offset="0.515548" stop-color="#F8F7FC"/>
<stop offset="0.518238" stop-color="#E0E5FD"/>
<stop offset="1" stop-color="#E0E5FD"/>
</linearGradient>
<linearGradient id="paint1_linear" x1="39.2148" y1="57.33" x2="135.55" y2="57.33" gradientUnits="userSpaceOnUse">
<stop stop-color="#7F91DB"/>
<stop offset="0.517073" stop-color="#919FE4"/>
<stop offset="0.523799" stop-color="#7B8CDA"/>
<stop offset="1" stop-color="#7F91DB"/>
</linearGradient>
<linearGradient id="paint2_linear" x1="39.8458" y1="105.302" x2="142.054" y2="104.965" gradientUnits="userSpaceOnUse">
<stop stop-color="#F8F7FC"/>
<stop offset="0.515548" stop-color="#F8F7FC"/>
<stop offset="0.518238" stop-color="#E0E5FD"/>
<stop offset="1" stop-color="#E0E5FD"/>
</linearGradient>
<linearGradient id="paint3_linear" x1="39.2148" y1="105.007" x2="136.845" y2="105.007" gradientUnits="userSpaceOnUse">
<stop stop-color="#7F91DB"/>
<stop offset="0.517073" stop-color="#919FE4"/>
<stop offset="0.523799" stop-color="#7B8CDA"/>
<stop offset="1" stop-color="#7F91DB"/>
</linearGradient>
<linearGradient id="paint4_linear" x1="39.8458" y1="81.5085" x2="142.055" y2="81.2059" gradientUnits="userSpaceOnUse">
<stop stop-color="#F8F7FC"/>
<stop offset="0.515548" stop-color="#F8F7FC"/>
<stop offset="0.518238" stop-color="#E0E5FD"/>
<stop offset="1" stop-color="#E0E5FD"/>
</linearGradient>
<linearGradient id="paint5_linear" x1="39.2148" y1="81.1795" x2="136.845" y2="81.1795" gradientUnits="userSpaceOnUse">
<stop stop-color="#7F91DB"/>
<stop offset="0.517073" stop-color="#919FE4"/>
<stop offset="0.523799" stop-color="#7B8CDA"/>
<stop offset="1" stop-color="#7F91DB"/>
</linearGradient>
<linearGradient id="paint6_linear" x1="-0.689538" y1="139.681" x2="36.447" y2="138.893" gradientUnits="userSpaceOnUse">
<stop stop-color="#927015"/>
<stop offset="0.291667" stop-color="#E0B543"/>
<stop offset="0.328125" stop-color="#EABF50"/>
<stop offset="0.510417" stop-color="#EDCE83"/>
<stop offset="0.71875" stop-color="#F9D27B"/>
<stop offset="0.765625" stop-color="#FFD988"/>
<stop offset="1" stop-color="#F0BF58"/>
</linearGradient>
<linearGradient id="paint7_linear" x1="58.8066" y1="138.499" x2="95.9431" y2="137.711" gradientUnits="userSpaceOnUse">
<stop stop-color="#927015"/>
<stop offset="0.291667" stop-color="#E0B543"/>
<stop offset="0.328125" stop-color="#EABF50"/>
<stop offset="0.510417" stop-color="#EDCE83"/>
<stop offset="0.71875" stop-color="#F9D27B"/>
<stop offset="0.765625" stop-color="#FFD988"/>
<stop offset="1" stop-color="#F0BF58"/>
</linearGradient>
<linearGradient id="paint8_linear" x1="65.8886" y1="132.194" x2="103.025" y2="131.406" gradientUnits="userSpaceOnUse">
<stop stop-color="#927015"/>
<stop offset="0.291667" stop-color="#E0B543"/>
<stop offset="0.328125" stop-color="#EABF50"/>
<stop offset="0.510417" stop-color="#EDCE83"/>
<stop offset="0.71875" stop-color="#F9D27B"/>
<stop offset="0.765625" stop-color="#FFD988"/>
<stop offset="1" stop-color="#F0BF58"/>
</linearGradient>
<linearGradient id="paint9_linear" x1="69.0526" y1="122.935" x2="106.19" y2="122.147" gradientUnits="userSpaceOnUse">
<stop stop-color="#927015"/>
<stop offset="0.291667" stop-color="#E0B543"/>
<stop offset="0.328125" stop-color="#EABF50"/>
<stop offset="0.510417" stop-color="#EDCE83"/>
<stop offset="0.71875" stop-color="#F9D27B"/>
<stop offset="0.765625" stop-color="#FFD988"/>
<stop offset="1" stop-color="#F0BF58"/>
</linearGradient>
<linearGradient id="paint10_linear" x1="74.9511" y1="115.842" x2="112.088" y2="115.054" gradientUnits="userSpaceOnUse">
<stop stop-color="#927015"/>
<stop offset="0.291667" stop-color="#E0B543"/>
<stop offset="0.328125" stop-color="#EABF50"/>
<stop offset="0.510417" stop-color="#EDCE83"/>
<stop offset="0.71875" stop-color="#F9D27B"/>
<stop offset="0.765625" stop-color="#FFD988"/>
<stop offset="1" stop-color="#F0BF58"/>
</linearGradient>
<linearGradient id="paint11_linear" x1="32.6034" y1="137.907" x2="69.74" y2="137.119" gradientUnits="userSpaceOnUse">
<stop stop-color="#927015"/>
<stop offset="0.291667" stop-color="#E0B543"/>
<stop offset="0.328125" stop-color="#EABF50"/>
<stop offset="0.510417" stop-color="#EDCE83"/>
<stop offset="0.71875" stop-color="#F9D27B"/>
<stop offset="0.765625" stop-color="#FFD988"/>
<stop offset="1" stop-color="#F0BF58"/>
</linearGradient>
<linearGradient id="paint12_linear" x1="36.9355" y1="128.057" x2="74.072" y2="127.269" gradientUnits="userSpaceOnUse">
<stop stop-color="#927015"/>
<stop offset="0.291667" stop-color="#E0B543"/>
<stop offset="0.328125" stop-color="#EABF50"/>
<stop offset="0.510417" stop-color="#EDCE83"/>
<stop offset="0.71875" stop-color="#F9D27B"/>
<stop offset="0.765625" stop-color="#FFD988"/>
<stop offset="1" stop-color="#F0BF58"/>
</linearGradient>
<linearGradient id="paint13_linear" x1="20.1933" y1="131.603" x2="57.3298" y2="130.815" gradientUnits="userSpaceOnUse">
<stop stop-color="#927015"/>
<stop offset="0.291667" stop-color="#E0B543"/>
<stop offset="0.328125" stop-color="#EABF50"/>
<stop offset="0.510417" stop-color="#EDCE83"/>
<stop offset="0.71875" stop-color="#F9D27B"/>
<stop offset="0.765625" stop-color="#FFD988"/>
<stop offset="1" stop-color="#F0BF58"/>
</linearGradient>
</defs>
</svg>
